<?xml version="1.0" encoding="UTF-8"?>
<svg xmlns="http://www.w3.org/2000/svg" xmlns:xlink="http://www.w3.org/1999/xlink" version="1.1" viewBox="0 0 1920 1080">
  <!-- Generator: Adobe Illustrator 29.8.1, SVG Export Plug-In . SVG Version: 2.1.1 Build 2)  -->
  <defs>
    <style>
      .st0 {
        fill: #8a3ce0;
      }

      .st1 {
        fill: #8d0ae6;
      }

      .st2 {
        fill: #8c07e0;
      }

      .st3 {
        fill: #8e27f9;
      }

      .st4 {
        fill: #8104e0;
      }

      .st5 {
        fill: #8b17e0;
      }

      .st6 {
        fill: #8a3de0;
      }

      .st7 {
        fill: #8403e0;
      }

      .st8 {
        fill: #8d09e6;
      }

      .st9 {
        fill: #6b1dec;
      }

      .st10 {
        fill: #630ee1;
      }

      .st11 {
        fill: #8a4ae0;
      }

      .st12 {
        fill: #8960e0;
      }

      .st13 {
        fill: #8c01e0;
      }

      .st14 {
        fill: #8d18ef;
      }

      .st15 {
        fill: #7009e1;
      }

      .st16 {
        fill: #8967e0;
      }

      .st17 {
        fill: #8b1fe0;
      }

      .st18 {
        fill: #8a3ee0;
      }

      .st19 {
        fill: #8b27e0;
      }

      .st20 {
        fill: #862bfa;
      }

      .st21 {
        fill: #8b19e0;
      }

      .st22 {
        fill: #7c26f5;
      }

      .st23 {
        fill: #8b29e0;
      }

      .st24 {
        fill: url(#Degradado_sin_nombre_8);
      }

      .st24, .st25, .st26, .st27, .st28, .st29, .st30, .st31, .st32, .st33, .st34, .st35, .st36 {
        mix-blend-mode: multiply;
        opacity: .5;
      }

      .st25 {
        fill: url(#Degradado_sin_nombre_7);
      }

      .st26 {
        fill: url(#Degradado_sin_nombre_25);
      }

      .st27 {
        fill: url(#Degradado_sin_nombre_13);
      }

      .st28 {
        fill: url(#Degradado_sin_nombre_71);
      }

      .st29 {
        fill: url(#Degradado_sin_nombre_73);
      }

      .st30 {
        fill: url(#Degradado_sin_nombre_72);
      }

      .st31 {
        fill: url(#Degradado_sin_nombre_74);
      }

      .st32 {
        fill: url(#Degradado_sin_nombre_78);
      }

      .st33 {
        fill: url(#Degradado_sin_nombre_76);
      }

      .st34 {
        fill: url(#Degradado_sin_nombre_77);
      }

      .st35 {
        fill: url(#Degradado_sin_nombre_75);
      }

      .st37 {
        fill: #8e23f7;
      }

      .st38 {
        fill: #8b1be0;
      }

      .st39 {
        fill: #8c4cf0;
      }

      .st40 {
        fill: #8c05e0;
      }

      .st41 {
        fill: #8e22f6;
      }

      .st42 {
        fill: #7220ef;
      }

      .st43 {
        fill: #8f2efe;
      }

      .st44 {
        fill: #8e24f7;
      }

      .st45 {
        fill: #8a5ce7;
      }

      .st46 {
        fill: #895be0;
      }

      .st47 {
        fill: #8a46e0;
      }

      .st48 {
        fill: #7906e0;
      }

      .st49 {
        fill: #8b26e0;
      }

      .st50 {
        fill: #5e16e5;
      }

      .st51 {
        fill: #8b24e0;
      }

      .st52 {
        fill: #8d42f5;
      }

      .st53 {
        fill: #895ae0;
      }

      .st54 {
        fill: #5811e1;
      }

      .st55 {
        fill: #8e1ef4;
      }

      .st56 {
        fill: #8b1ae0;
      }

      .st57 {
        fill: #8a60e4;
      }

      .st58 {
        fill: #6c0be1;
      }

      .st59 {
        fill: #8e3df8;
      }

      .st60 {
        fill: #8a3ae0;
      }

      .st61 {
        fill: #8b34e0;
      }

      .st62 {
        fill: #7925f4;
      }

      .st63 {
        fill: #8c10e0;
      }

      .st64 {
        fill: #8901e0;
      }

      .st65 {
        fill: #8c4af1;
      }

      .st66 {
        fill: #8f31fe;
      }

      .st67 {
        fill: #8a5fe5;
      }

      .st68 {
        fill: #5a14e3;
      }

      .st69 {
        fill: #8957e0;
      }

      .st70 {
        fill: #6017e6;
      }

      .st71 {
        fill: #8b20e0;
      }

      .st72 {
        fill: #8c00e0;
      }

      .st73 {
        fill: #660de1;
      }

      .st74 {
        fill: #5c10e1;
      }

      .st75 {
        fill: #8966e0;
      }

      .st76 {
        fill: #6a1ceb;
      }

      .st77 {
        fill: #8c0de0;
      }

      .st78 {
        fill: #8f34fd;
      }

      .st79 {
        fill: #8b18e0;
      }

      .st80 {
        fill: #8b58e9;
      }

      .st81 {
        fill: #8b23e0;
      }

      .st82 {
        fill: #8c48f2;
      }

      .st83 {
        fill: #8b00e0;
      }

      .st84 {
        fill: #8d3ff7;
      }

      .st85 {
        fill: #8d12eb;
      }

      .st86 {
        fill: #8c50ed;
      }

      .st87 {
        fill: #8a56e0;
      }

      .st88 {
        fill: #8a4fe0;
      }

      .st89 {
        fill: #8e36fc;
      }

      .st90 {
        fill: #7109e0;
      }

      .st91 {
        fill: #600fe1;
      }

      .st92 {
        fill: #7508e0;
      }

      .st93 {
        fill: #7422f1;
      }

      .st94 {
        fill: #8e38fb;
      }

      .st95 {
        fill: #8f2ffe;
      }

      .st96 {
        fill: #8a40e0;
      }

      .st97 {
        fill: #8b59e8;
      }

      .st98 {
        fill: #6218e7;
      }

      .st99 {
        fill: #6319e8;
      }

      .st100 {
        fill: #6c1dec;
      }

      .st101 {
        fill: #8b2be0;
      }

      .st102 {
        fill: #8b57e9;
      }

      .st103 {
        fill: #8a36e0;
      }

      .st104 {
        fill: #8a4be0;
      }

      .st105 {
        fill: #8a51e0;
      }

      .st106 {
        fill: #8d43f5;
      }

      .st107 {
        fill: #7f28f7;
      }

      .st108 {
        fill: #832af9;
      }

      .st109 {
        fill: #6f1fee;
      }

      .st110 {
        fill: #8b2efd;
      }

      .st111 {
        fill: #7807e0;
      }

      .st112 {
        fill: #895ce0;
      }

      .st113 {
        fill: #7b06e0;
      }

      .st114 {
        fill: #8d41f6;
      }

      .st115 {
        fill: #8c4def;
      }

      .st116 {
        fill: #8004e0;
      }

      .st117 {
        fill: #8c2efd;
      }

      .st118 {
        fill: #8a61e4;
      }

      .st119 {
        fill: #8c0ee0;
      }

      .st120 {
        fill: #852bfa;
      }

      .st121 {
        isolation: isolate;
      }

      .st122 {
        fill: #8961e0;
      }

      .st123 {
        fill: #701fee;
      }

      .st124 {
        fill: #8b21e0;
      }

      .st125 {
        fill: #8e1af1;
      }

      .st126 {
        fill: #8d10ea;
      }

      .st127 {
        fill: #8d15ed;
      }

      .st128 {
        fill: #8c11e0;
      }

      .st129 {
        fill: #8d45f4;
      }

      .st130 {
        fill: #8502e0;
      }

      .st131 {
        fill: #5713e2;
      }

      .st132 {
        fill: #8c09e0;
      }

      .st133 {
        fill: #8c0ce0;
      }

      .st134 {
        fill: #6e0ae1;
      }

      .st135 {
        fill: #7607e0;
      }

      .st136 {
        fill: #7209e0;
      }

      .st137 {
        fill: #8f30ff;
      }

      .st138 {
        fill: #8203e0;
      }

      .st139 {
        fill: #6f0ae1;
      }

      .st140 {
        fill: #5712e1;
      }

      .st141 {
        fill: #8c0ae0;
      }

      .st142 {
        fill: #8b52ec;
      }

      .st143 {
        fill: #8129f8;
      }

      .st144 {
        fill: #8a53e0;
      }

      .st145 {
        fill: #8a41e0;
      }

      .st146 {
        fill: #8a5be7;
      }

      .st147 {
        fill: #8c49f1;
      }

      .st148 {
        fill: #8963e0;
      }

      .st149 {
        fill: #8e35fc;
      }

      .st150 {
        fill: #7120ef;
      }

      .st151 {
        fill: #681bea;
      }

      .st152 {
        fill: #8d16ee;
      }

      .st153 {
        fill: #8e3afa;
      }

      .st154 {
        fill: #5b10e1;
      }

      .st155 {
        fill: #8303e0;
      }

      .st156 {
        fill: #8a55e0;
      }

      .st157 {
        fill: #8c08e0;
      }

      .st158 {
        fill: #8d13ec;
      }

      .st159 {
        fill: #7a25f4;
      }

      .st160 {
        fill: #7d05e0;
      }

      .st161 {
        fill: #8a45e0;
      }

      .st162 {
        fill: #8e1ff4;
      }

      .st163 {
        fill: #8b30e0;
      }

      .st164 {
        fill: #8958e0;
      }

      .st165 {
        fill: #8c04e3;
      }

      .st166 {
        fill: #892dfc;
      }

      .st167 {
        fill: #8e3bf9;
      }

      .st168 {
        fill: #8e20f5;
      }

      .st169 {
        fill: #5c15e4;
      }

      .st170 {
        fill: #8e3ef7;
      }

      .st171 {
        fill: #610ee1;
      }

      .st172 {
        fill: #5813e2;
      }

      .st173 {
        fill: #571dff;
      }

      .st174 {
        fill: #8a50e0;
      }

      .st175 {
        fill: #5b15e4;
      }

      .st176 {
        fill: #8c01e1;
      }

      .st177 {
        fill: #8a5ee5;
      }

      .st178 {
        fill: #8a63e3;
      }

      .st179 {
        fill: #8b1de0;
      }

      .st180 {
        fill: #6d0ae1;
      }

      .st181 {
        fill: #7c05e0;
      }

      .st182 {
        fill: #7824f3;
      }

      .st183 {
        fill: #8a3fe0;
      }

      .st184 {
        fill: #8f2afb;
      }

      .st185 {
        fill: #5f0fe1;
      }

      .st186 {
        fill: #8a4ee0;
      }

      .st187 {
        fill: #8e26f9;
      }

      .st188 {
        fill: #8c4bf0;
      }

      .st189 {
        fill: #8967e1;
      }

      .st190 {
        fill: #8d44f4;
      }

      .st191 {
        fill: #670ce1;
      }

      .st192 {
        fill: #640de1;
      }

      .st193 {
        fill: #7523f2;
      }

      .st194 {
        fill: #620ee1;
      }

      .st195 {
        fill: #7e05e0;
      }

      .st196 {
        fill: #8b12e0;
      }

      .st197 {
        fill: #7e27f6;
      }

      .st198 {
        fill: #8b2ce0;
      }

      .st199 {
        fill: #8962e0;
      }

      .st200 {
        fill: #6b0be1;
      }

      .st201 {
        fill: #8c06e4;
      }

      .st202 {
        fill: #8d0fe9;
      }

      .st203 {
        fill: #8702e0;
      }

      .st204 {
        fill: #7724f3;
      }

      .st205 {
        fill: #8c02e1;
      }

      .st206 {
        fill: #8b2fe0;
      }

      .st207 {
        fill: #8a43e0;
      }

      .st208 {
        fill: #5a11e1;
      }

      .st209 {
        fill: #6e1eed;
      }

      .st210 {
        fill: #6d1eed;
      }

      .st211 {
        fill: #8c4eee;
      }

      .st212 {
        fill: #8b54eb;
      }

      .st213 {
        fill: #8d0de8;
      }

      .st214 {
        fill: #7a06e0;
      }

      .st215 {
        fill: #8a4ce0;
      }

      .st216 {
        fill: #8a54e0;
      }

      .st217 {
        fill: #8d40f6;
      }

      .st218 {
        fill: #8b53eb;
      }

      .st219 {
        fill: #8e37fb;
      }

      .st220 {
        fill: #872cfb;
      }

      .st221 {
        fill: #6118e7;
      }

      .st222 {
        fill: #882cfb;
      }

      .st223 {
        fill: #8a38e0;
      }

      .st224 {
        fill: #8a49e0;
      }

      .st225 {
        fill: #671bea;
      }

      .st226 {
        fill: #8e25f8;
      }

      .st227 {
        fill: #8e21f6;
      }

      .st228 {
        fill: #8801e0;
      }

      .st229 {
        fill: #8c4cef;
      }

      .st36 {
        fill: url(#Degradado_sin_nombre_251);
      }

      .st230 {
        fill: #8964e2;
      }

      .st231 {
        fill: #8c07e4;
      }

      .st232 {
        fill: #8a47e0;
      }

      .st233 {
        fill: #8c0fe0;
      }

      .st234 {
        fill: #8c06e0;
      }

      .st235 {
        fill: #8b13e0;
      }

      .st236 {
        fill: #8f29fb;
      }

      .st237 {
        fill: #650de1;
      }

      .st238 {
        fill: #895de0;
      }

      .st239 {
        fill: #8f33fd;
      }

      .st240 {
        fill: #8966e1;
      }

      .st241 {
        fill: #8c08e5;
      }

      .st242 {
        fill: #7b26f5;
      }

      .st243 {
        fill: #8e19f0;
      }

      .st244 {
        fill: #8a34e0;
      }

      .st245 {
        fill: #5914e3;
      }

      .st246 {
        fill: #8f2bfc;
      }

      .st247 {
        fill: #8a39e0;
      }

      .st248 {
        fill: #8d14ed;
      }

      .st249 {
        fill: #8964e0;
      }

      .st250 {
        fill: #8028f7;
      }

      .st251 {
        fill: #8c05e3;
      }

      .st252 {
        fill: #8d47f2;
      }

      .st253 {
        fill: #5f17e6;
      }

      .st254 {
        fill: #8d17ef;
      }

      .st255 {
        fill: #8e1df3;
      }

      .st256 {
        fill: #6a0be1;
      }

      .st257 {
        fill: #5d16e5;
      }

      .st258 {
        fill: #8b2ee0;
      }

      .st259 {
        fill: #8f32fe;
      }

      .st260 {
        fill: #7707e0;
      }

      .st261 {
        fill: #8b25e0;
      }

      .st262 {
        fill: #8a5de6;
      }

      .st263 {
        fill: #8a2dfc;
      }

      .st264 {
        fill: #691ceb;
      }

      .st265 {
        fill: #8b31e0;
      }

      .st266 {
        fill: #8a35e0;
      }

      .st267 {
        fill: #5612e1;
      }

      .st268 {
        fill: #8959e0;
      }

      .st269 {
        fill: #8e39fa;
      }

      .st270 {
        fill: #8c4fee;
      }

      .st271 {
        fill: #8d0ee9;
      }

      .st272 {
        fill: #8602e0;
      }

      .st273 {
        fill: #651ae9;
      }

      .st274 {
        fill: #8a37e0;
      }

      .st275 {
        fill: #8b15e0;
      }

      .st276 {
        fill: #8965e2;
      }

      .st277 {
        fill: #8a4de0;
      }

      .st278 {
        fill: #8e1bf2;
      }

      .st279 {
        fill: #5e0fe1;
      }

      .st280 {
        fill: #8e3cf8;
      }

      .st281 {
        fill: #8a5ae8;
      }

      .st282 {
        fill: #7d27f6;
      }

      .st283 {
        fill: #8a01e0;
      }

      .st284 {
        fill: #8d11eb;
      }

      .st285 {
        fill: #680ce1;
      }

      .st286 {
        fill: #895fe0;
      }

      .st287 {
        fill: #690ce1;
      }

      .st288 {
        fill: #8968e0;
      }

      .st289 {
        fill: #8c0be0;
      }

      .st290 {
        fill: #8b51ed;
      }

      .st291 {
        fill: #8e2ffe;
      }

      .st292 {
        fill: #8c04e0;
      }

      .st293 {
        fill: #8c02e0;
      }

      .st294 {
        fill: #8b2de0;
      }

      .st295 {
        fill: #7221f0;
      }

      .st296 {
        fill: #8a3be0;
      }

      .st297 {
        fill: #8b2ae0;
      }

      .st298 {
        fill: #8b28e0;
      }

      .st299 {
        fill: #8d2ffe;
      }

      .st300 {
        fill: #8a62e3;
      }

      .st301 {
        fill: #895ee0;
      }

      .st302 {
        fill: #8b32e0;
      }

      .st303 {
        fill: #8b22e0;
      }

      .st304 {
        fill: #8e18f0;
      }

      .st305 {
        fill: #842af9;
      }

      .st306 {
        fill: #7322f1;
      }

      .st307 {
        fill: #8d46f3;
      }

      .st308 {
        fill: #6419e8;
      }

      .st309 {
        fill: #8a48e0;
      }

      .st310 {
        fill: #8b56ea;
      }

      .st311 {
        fill: #5d10e1;
      }

      .st312 {
        fill: #8b1ee0;
      }

      .st313 {
        fill: #8f2dfd;
      }

      .st314 {
        fill: #8a44e0;
      }

      .st315 {
        fill: #8b33e0;
      }

      .st316 {
        fill: #5911e1;
      }

      .st317 {
        fill: #8b55ea;
      }

      .st318 {
        fill: #8c03e0;
      }

      .st319 {
        fill: #8229f8;
      }

      .st320 {
        fill: #8a52e0;
      }

      .st321 {
        fill: #8c03e2;
      }

      .st322 {
        fill: #8e1cf2;
      }

      .st323 {
        fill: #8b14e0;
      }

      .st324 {
        fill: #8b1ce0;
      }

      .st325 {
        fill: #8f28fa;
      }

      .st326 {
        fill: #8965e0;
      }

      .st327 {
        fill: #8f2cfc;
      }

      .st328 {
        fill: #7f04e0;
      }

      .st329 {
        fill: #7308e0;
      }

      .st330 {
        fill: #8a42e0;
      }

      .st331 {
        fill: #7408e0;
      }

      .st332 {
        fill: #8d0be7;
      }

      .st333 {
        fill: #8d0ce8;
      }

      .st334 {
        fill: #8b16e0;
      }

      .st335 {
        fill: #7109e1;
      }

      .st336 {
        fill: #661ae9;
      }

      .st337 {
        fill: #7623f2;
      }
    </style>
    <linearGradient id="Degradado_sin_nombre_7" data-name="Degradado sin nombre 7" x1="1079.03" y1="400.29" x2="1083.14" y2="296.42" gradientUnits="userSpaceOnUse">
      <stop offset="0" stop-color="#fff" stop-opacity="0"/>
      <stop offset="1" stop-color="#000"/>
    </linearGradient>
    <linearGradient id="Degradado_sin_nombre_71" data-name="Degradado sin nombre 7" x1="878.77" y1="407.77" x2="950.3" y2="439.25" xlink:href="#Degradado_sin_nombre_7"/>
    <linearGradient id="Degradado_sin_nombre_72" data-name="Degradado sin nombre 7" x1="1065.38" y1="482.97" x2="987.56" y2="456.55" xlink:href="#Degradado_sin_nombre_7"/>
    <linearGradient id="Degradado_sin_nombre_8" data-name="Degradado sin nombre 8" x1="1061.84" y1="584.64" x2="973.48" y2="485.6" gradientUnits="userSpaceOnUse">
      <stop offset=".45" stop-color="#fff" stop-opacity="0"/>
      <stop offset="1" stop-color="#000"/>
    </linearGradient>
    <radialGradient id="Degradado_sin_nombre_25" data-name="Degradado sin nombre 25" cx="1172.56" cy="490.57" fx="1172.56" fy="490.57" r="87.71" gradientUnits="userSpaceOnUse">
      <stop offset="0" stop-color="#000"/>
      <stop offset="1" stop-color="#fff" stop-opacity="0"/>
    </radialGradient>
    <linearGradient id="Degradado_sin_nombre_73" data-name="Degradado sin nombre 7" x1="857.72" y1="476.26" x2="934.44" y2="476.26" xlink:href="#Degradado_sin_nombre_7"/>
    <linearGradient id="Degradado_sin_nombre_74" data-name="Degradado sin nombre 7" x1="857.37" y1="481.82" x2="790.26" y2="486.11" xlink:href="#Degradado_sin_nombre_7"/>
    <linearGradient id="Degradado_sin_nombre_75" data-name="Degradado sin nombre 7" x1="914.93" y1="300.08" x2="946.52" y2="414.67" xlink:href="#Degradado_sin_nombre_7"/>
    <linearGradient id="Degradado_sin_nombre_76" data-name="Degradado sin nombre 7" x1="712" y1="314.27" x2="755.91" y2="446.52" xlink:href="#Degradado_sin_nombre_7"/>
    <linearGradient id="Degradado_sin_nombre_77" data-name="Degradado sin nombre 7" x1="1116.61" y1="405.85" x2="1150.34" y2="448.15" xlink:href="#Degradado_sin_nombre_7"/>
    <linearGradient id="Degradado_sin_nombre_78" data-name="Degradado sin nombre 7" x1="1045.22" y1="409.37" x2="994.62" y2="434.54" xlink:href="#Degradado_sin_nombre_7"/>
    <linearGradient id="Degradado_sin_nombre_13" data-name="Degradado sin nombre 13" x1="825.53" y1="341.72" x2="827.32" y2="296.32" gradientUnits="userSpaceOnUse">
      <stop offset=".48" stop-color="#fff" stop-opacity="0"/>
      <stop offset="1" stop-color="#000"/>
    </linearGradient>
    <radialGradient id="Degradado_sin_nombre_251" data-name="Degradado sin nombre 25" cx="849.15" cy="379.2" fx="849.15" fy="366.89" r="52.37" gradientTransform="translate(1724.46 471.1) rotate(170.75) scale(1 .61)" xlink:href="#Degradado_sin_nombre_25"/>
  </defs>
  <g class="st121">
    <g id="Layer_1">
      <g>
        <g>
          <path class="st173" d="M461.37,760.6v39.11h-16.93v-118.53h16.93v75.01l39.11-41.32h22.69l-38.27,39.11,40.47,45.72h-21.84l-31.49-35.56c-2.88-3.39-6.94-4.57-10.67-3.56Z"/>
          <path class="st173" d="M530.63,775.33c0-15.41,12.87-23.88,30.65-26.25,10.84-1.52,28.95-4.06,31.49-9.14-2.71-7.96-10.5-12.19-24.89-12.19-20.49,0-31.83,11.68-31.83,20.49h-2.03v-16.42c0-8.64,13.55-18.96,36.91-18.96,27.6,0,39.79,13.04,39.79,34.37v29.12c0,7.45.51,15.92,1.69,23.37h-16.93c-1.19-7.62-1.52-14.73-1.52-22.18v-1.52c-4.06,15.92-16.42,25.74-33.02,25.74-17.78,0-30.31-10.5-30.31-26.41ZM566.02,787.01c14.9,0,27.94-6.94,27.94-21.84v-17.61c0-1.19,0-2.54-.17-3.56-.85,11.68-11.85,14.56-25.4,16.59-13.38,2.03-20.49,5.42-20.49,13.55s6.27,12.87,18.12,12.87Z"/>
          <path class="st173" d="M631.21,681.19h16.93v118.53h-16.93v-118.53Z"/>
          <path class="st173" d="M664.22,757.21c0-25.06,18.12-44.36,44.53-44.36,20.83,0,38.44,11.35,38.44,37.08v12.36h-65.7c2.2,14.39,13.88,24.38,32.34,24.38s29.29-11.51,29.29-19.64h2.03v10.5c0,12.7-11.85,24.21-34.88,24.21-27.09,0-46.06-17.61-46.06-44.53ZM732.8,750.78c-1.19-16.09-13.04-23.2-24.55-23.2-13.88,0-24.21,8.97-26.58,23.2h51.14Z"/>
          <path class="st173" d="M762.77,689.99c0-5.59,4.57-10.16,10.67-10.16s10.67,4.57,10.67,10.16c0,6.1-4.57,10.67-10.67,10.67s-10.67-4.57-10.67-10.67ZM764.8,714.88h16.93v84.83h-16.93v-84.83Z"/>
          <path class="st173" d="M871.65,740.96v-59.77h16.93v118.53h-16.93v-27.43c-4.74,17.44-17.61,29.46-35.22,29.46-21.5,0-38.61-17.61-38.61-43.86s17.78-45.04,40.3-45.04c16.76,0,28.96,11.51,33.53,28.11ZM814.58,757.21c0,16.93,10.16,29.12,28.11,29.12,16.76,0,29.12-10.67,29.12-29.12s-12.7-28.96-29.29-28.96c-17.61,0-27.94,12.36-27.94,28.96Z"/>
          <path class="st173" d="M904.49,757.04c0-25.23,19.3-44.19,45.21-44.19s45.04,18.96,45.04,44.19-18.96,44.7-45.04,44.7-45.21-19.13-45.21-44.7ZM977.64,757.21c0-16.76-11.68-29.12-27.94-29.12s-28.11,12.36-28.11,29.12,11.85,29.46,28.11,29.46,27.94-12.36,27.94-29.46Z"/>
          <path class="st173" d="M1008.46,774.32v-13.21h2.03c0,14.39,15.24,25.91,35.39,25.91,12.19,0,19.47-4.91,19.47-11.01,0-5.42-3.39-7.79-11.85-10.16l-24.21-6.77c-11.68-3.39-20.49-9.65-20.49-21.67,0-13.55,14.56-24.55,36.24-24.55,20.15,0,34.71,9.82,34.71,19.81v17.95h-2.03c0-11.51-13.21-23.03-34.71-23.03-11.51,0-17.61,4.57-17.61,9.48,0,4.23,3.89,6.43,9.99,8.3l24.89,6.77c12.7,3.56,21.84,9.65,21.84,22.86,0,15.41-15.24,26.75-36.74,26.75s-36.91-7.11-36.91-27.43Z"/>
          <path class="st173" d="M1094.64,757.21c0-24.72,18.46-44.36,45.38-44.36,12.53,0,22.52,4.4,29.46,11.68v19.3h-1.69c-6.1-10.33-15.41-15.58-27.26-15.58-17.61,0-28.96,11.85-28.96,28.96s11.18,29.12,30.48,29.12c17.95,0,27.6-12.02,27.6-20.66h2.03v12.19c0,12.36-11.34,23.88-33.7,23.88-25.23,0-43.35-17.61-43.35-44.53Z"/>
          <path class="st173" d="M1183.19,757.04c0-25.23,19.3-44.19,45.21-44.19s45.04,18.96,45.04,44.19-18.96,44.7-45.04,44.7-45.21-19.13-45.21-44.7ZM1256.34,757.21c0-16.76-11.68-29.12-27.94-29.12s-28.11,12.36-28.11,29.12,11.85,29.46,28.11,29.46,27.94-12.36,27.94-29.46Z"/>
          <path class="st173" d="M1289.36,714.88h16.93v26.92c4.91-17.27,17.61-28.96,35.05-28.96,21.5,0,38.61,17.61,38.61,43.86s-17.78,45.04-40.3,45.04c-16.42,0-28.62-11.34-33.36-27.6v55.71h-16.93v-114.97ZM1363.19,757.38c0-16.93-10.16-29.12-28.11-29.12-16.76,0-29.12,10.67-29.12,29.12s12.7,28.95,29.29,28.95c17.61,0,27.94-12.36,27.94-28.95Z"/>
          <path class="st173" d="M1391.8,757.21c0-25.06,18.12-44.36,44.53-44.36,20.83,0,38.44,11.35,38.44,37.08v12.36h-65.7c2.2,14.39,13.88,24.38,32.34,24.38s29.29-11.51,29.29-19.64h2.03v10.5c0,12.7-11.85,24.21-34.88,24.21-27.09,0-46.06-17.61-46.06-44.53ZM1460.38,750.78c-1.19-16.09-13.04-23.2-24.55-23.2-13.88,0-24.21,8.97-26.58,23.2h51.14Z"/>
        </g>
        <g>
          <g>
            <g>
              <circle class="st72" cx="964.4" cy="449.86" r="23.61"/>
              <circle class="st176" cx="958.41" cy="451.79" r="23.61"/>
              <circle class="st205" cx="952.42" cy="453.73" r="23.61"/>
              <circle class="st321" cx="946.43" cy="455.66" r="23.61"/>
              <circle class="st165" cx="940.44" cy="457.59" r="23.61"/>
              <circle class="st251" cx="934.44" cy="459.52" r="23.61"/>
              <circle class="st201" cx="928.45" cy="461.46" r="23.61"/>
              <circle class="st231" cx="922.46" cy="463.39" r="23.61"/>
              <circle class="st241" cx="916.47" cy="465.32" r="23.61"/>
              <circle class="st8" cx="910.47" cy="467.25" r="23.61"/>
              <circle class="st1" cx="904.48" cy="469.19" r="23.61"/>
              <circle class="st332" cx="898.49" cy="471.12" r="23.61"/>
              <circle class="st333" cx="892.5" cy="473.05" r="23.61"/>
              <circle class="st213" cx="886.51" cy="474.98" r="23.61"/>
              <circle class="st271" cx="880.51" cy="476.92" r="23.61"/>
              <circle class="st202" cx="874.52" cy="478.85" r="23.61"/>
              <circle class="st126" cx="868.53" cy="480.78" r="23.61"/>
              <circle class="st284" cx="862.54" cy="482.71" r="23.61"/>
              <circle class="st85" cx="856.21" cy="484.54" r="23.61"/>
              <circle class="st158" cx="849.85" cy="485.97" r="23.61"/>
              <circle class="st248" cx="843.49" cy="487" r="23.61"/>
              <circle class="st127" cx="837.14" cy="487.64" r="23.61"/>
              <circle class="st152" cx="830.82" cy="487.9" r="23.61"/>
              <circle class="st254" cx="824.53" cy="487.79" r="23.61"/>
              <circle class="st14" cx="818.3" cy="487.3" r="23.61"/>
              <circle class="st304" cx="812.13" cy="486.46" r="23.61"/>
              <circle class="st243" cx="806.05" cy="485.26" r="23.61"/>
              <circle class="st125" cx="800.06" cy="483.71" r="23.61"/>
              <circle class="st278" cx="794.18" cy="481.83" r="23.61"/>
              <circle class="st322" cx="788.44" cy="479.62" r="23.61"/>
              <circle class="st255" cx="782.83" cy="477.09" r="23.61"/>
              <circle class="st55" cx="777.37" cy="474.24" r="23.61"/>
              <circle class="st162" cx="772.09" cy="471.08" r="23.61"/>
              <circle class="st168" cx="766.99" cy="467.62" r="23.61"/>
              <circle class="st227" cx="762.09" cy="463.87" r="23.61"/>
              <circle class="st41" cx="757.4" cy="459.83" r="23.61"/>
              <circle class="st37" cx="752.94" cy="455.52" r="23.61"/>
              <circle class="st44" cx="748.72" cy="450.93" r="23.61"/>
              <circle class="st226" cx="744.76" cy="446.08" r="23.61"/>
              <circle class="st187" cx="741.07" cy="440.98" r="23.61"/>
              <circle class="st3" cx="737.67" cy="435.63" r="23.61"/>
              <circle class="st325" cx="734.57" cy="430.03" r="23.61"/>
              <circle class="st236" cx="731.78" cy="424.21" r="23.61"/>
              <circle class="st184" cx="729.32" cy="418.15" r="23.61"/>
              <circle class="st246" cx="727.21" cy="411.89" r="23.61"/>
              <circle class="st327" cx="725.49" cy="405.55" r="23.61"/>
              <circle class="st313" cx="724.17" cy="399.19" r="23.61"/>
              <circle class="st43" cx="723.25" cy="392.83" r="23.61"/>
              <circle class="st95" cx="722.72" cy="386.48" r="23.61"/>
              <circle class="st137" cx="722.57" cy="380.96" r="23.61"/>
              <circle class="st291" cx="722.73" cy="374.95" r="23.61"/>
              <circle class="st299" cx="723.14" cy="369.78" r="23.61"/>
              <circle class="st117" cx="723.8" cy="364.65" r="23.61"/>
              <circle class="st110" cx="724.7" cy="359.57" r="23.61"/>
              <circle class="st263" cx="725.85" cy="354.56" r="23.61"/>
              <circle class="st166" cx="727.23" cy="349.62" r="23.61"/>
              <circle class="st222" cx="728.84" cy="344.76" r="23.61"/>
              <circle class="st220" cx="730.68" cy="339.99" r="23.61"/>
              <circle class="st20" cx="732.74" cy="335.31" r="23.61"/>
              <circle class="st120" cx="735.02" cy="330.74" r="23.61"/>
              <circle class="st305" cx="737.52" cy="326.28" r="23.61"/>
              <circle class="st108" cx="740.23" cy="321.94" r="23.61"/>
              <circle class="st319" cx="743.14" cy="317.73" r="23.61"/>
              <circle class="st143" cx="746.25" cy="313.66" r="23.61"/>
              <circle class="st250" cx="749.56" cy="309.73" r="23.61"/>
              <circle class="st107" cx="753.07" cy="305.96" r="23.61"/>
              <circle class="st197" cx="756.76" cy="302.35" r="23.61"/>
              <circle class="st282" cx="760.64" cy="298.91" r="23.61"/>
              <circle class="st22" cx="764.7" cy="295.66" r="23.61"/>
              <circle class="st242" cx="768.93" cy="292.59" r="23.61"/>
              <circle class="st159" cx="773.34" cy="289.71" r="23.61"/>
              <circle class="st62" cx="777.91" cy="287.05" r="23.61"/>
              <circle class="st182" cx="782.65" cy="284.59" r="23.61"/>
              <circle class="st204" cx="787.55" cy="282.35" r="23.61"/>
              <circle class="st337" cx="792.6" cy="280.35" r="23.61"/>
              <circle class="st193" cx="797.8" cy="278.58" r="23.61"/>
              <circle class="st93" cx="803.06" cy="277.08" r="23.61"/>
              <circle class="st306" cx="808.34" cy="275.86" r="23.61"/>
              <circle class="st295" cx="813.62" cy="274.92" r="23.61"/>
              <circle class="st42" cx="818.9" cy="274.25" r="23.61"/>
              <circle class="st150" cx="824.16" cy="273.84" r="23.61"/>
              <circle class="st123" cx="829.41" cy="273.7" r="23.61"/>
              <circle class="st109" cx="834.63" cy="273.81" r="23.61"/>
              <circle class="st209" cx="839.81" cy="274.18" r="23.61"/>
              <circle class="st210" cx="844.95" cy="274.8" r="23.61"/>
              <circle class="st100" cx="850.04" cy="275.66" r="23.61"/>
              <circle class="st9" cx="855.06" cy="276.76" r="23.61"/>
              <circle class="st76" cx="860.01" cy="278.1" r="23.61"/>
              <circle class="st264" cx="864.89" cy="279.68" r="23.61"/>
              <circle class="st151" cx="869.68" cy="281.48" r="23.61"/>
              <circle class="st225" cx="874.37" cy="283.5" r="23.61"/>
              <circle class="st336" cx="878.97" cy="285.75" r="23.61"/>
              <circle class="st273" cx="883.45" cy="288.21" r="23.61"/>
              <circle class="st308" cx="887.81" cy="290.88" r="23.61"/>
              <circle class="st99" cx="892.04" cy="293.75" r="23.61"/>
              <circle class="st98" cx="896.13" cy="296.83" r="23.61"/>
              <circle class="st221" cx="900.08" cy="300.11" r="23.61"/>
              <circle class="st70" cx="903.88" cy="303.58" r="23.61"/>
              <circle class="st253" cx="907.52" cy="307.24" r="23.61"/>
              <circle class="st50" cx="910.99" cy="311.09" r="23.61"/>
              <circle class="st257" cx="914.27" cy="315.12" r="23.61"/>
              <circle class="st169" cx="917.38" cy="319.32" r="23.61"/>
              <circle class="st175" cx="920.28" cy="323.7" r="23.61"/>
              <circle class="st68" cx="922.99" cy="328.24" r="23.61"/>
              <circle class="st245" cx="925.48" cy="332.95" r="23.61"/>
              <circle class="st172" cx="927.76" cy="337.82" r="23.61"/>
              <circle class="st131" cx="929.8" cy="342.85" r="23.61"/>
              <circle class="st267" cx="931.61" cy="348.02" r="23.61"/>
              <circle class="st140" cx="933.42" cy="353.65" r="23.61"/>
              <circle class="st54" cx="935.23" cy="359.28" r="23.61"/>
              <circle class="st316" cx="937.04" cy="364.91" r="23.61"/>
              <circle class="st208" cx="938.85" cy="370.54" r="23.61"/>
              <circle class="st154" cx="940.66" cy="376.17" r="23.61"/>
              <circle class="st74" cx="942.47" cy="381.8" r="23.61"/>
              <circle class="st311" cx="944.28" cy="387.43" r="23.61"/>
              <circle class="st279" cx="946.09" cy="393.06" r="23.61"/>
              <circle class="st185" cx="947.9" cy="398.69" r="23.61"/>
              <circle class="st91" cx="949.71" cy="404.32" r="23.61"/>
              <circle class="st171" cx="951.52" cy="409.95" r="23.61"/>
              <circle class="st194" cx="953.33" cy="415.58" r="23.61"/>
              <circle class="st10" cx="955.14" cy="421.21" r="23.61"/>
              <circle class="st192" cx="956.96" cy="426.84" r="23.61"/>
              <circle class="st237" cx="958.77" cy="432.47" r="23.61"/>
              <circle class="st73" cx="960.58" cy="438.1" r="23.61"/>
              <circle class="st191" cx="962.39" cy="443.73" r="23.61"/>
              <circle class="st285" cx="964.2" cy="449.36" r="23.61"/>
              <circle class="st287" cx="966.83" cy="454.65" r="23.61"/>
              <circle class="st256" cx="969.53" cy="459.91" r="23.61"/>
              <circle class="st200" cx="972.23" cy="465.17" r="23.61"/>
              <circle class="st58" cx="974.93" cy="470.43" r="23.61"/>
              <circle class="st180" cx="977.63" cy="475.69" r="23.61"/>
              <circle class="st134" cx="980.33" cy="480.96" r="23.61"/>
              <circle class="st139" cx="983.03" cy="486.22" r="23.61"/>
              <circle class="st15" cx="985.73" cy="491.48" r="23.61"/>
              <circle class="st335" cx="988.43" cy="496.74" r="23.61"/>
              <circle class="st90" cx="991.13" cy="502" r="23.61"/>
              <circle class="st136" cx="993.83" cy="507.26" r="23.61"/>
              <circle class="st329" cx="996.53" cy="512.52" r="23.61"/>
              <circle class="st331" cx="999.24" cy="517.78" r="23.61"/>
              <circle class="st92" cx="1001.94" cy="523.04" r="23.61"/>
              <circle class="st135" cx="1004.76" cy="528.41" r="23.61"/>
              <circle class="st260" cx="1007.96" cy="533.65" r="23.61"/>
              <circle class="st111" cx="1011.48" cy="538.58" r="23.61"/>
              <circle class="st48" cx="1015.3" cy="543.19" r="23.61"/>
              <circle class="st214" cx="1019.39" cy="547.49" r="23.61"/>
              <circle class="st113" cx="1023.75" cy="551.45" r="23.61"/>
              <circle class="st181" cx="1028.34" cy="555.08" r="23.61"/>
              <circle class="st160" cx="1033.15" cy="558.37" r="23.61"/>
              <circle class="st195" cx="1038.16" cy="561.31" r="23.61"/>
              <circle class="st328" cx="1043.34" cy="563.89" r="23.61"/>
              <circle class="st116" cx="1048.68" cy="566.12" r="23.61"/>
              <circle class="st4" cx="1054.15" cy="567.98" r="23.61"/>
              <circle class="st138" cx="1059.74" cy="569.46" r="23.61"/>
              <circle class="st155" cx="1065.42" cy="570.56" r="23.61"/>
              <circle class="st7" cx="1071.17" cy="571.27" r="23.61"/>
              <circle class="st130" cx="1076.98" cy="571.59" r="23.61"/>
              <circle class="st272" cx="1082.82" cy="571.51" r="23.61"/>
              <circle class="st203" cx="1088.67" cy="571.02" r="23.61"/>
              <circle class="st228" cx="1094.51" cy="570.12" r="23.61"/>
              <circle class="st64" cx="1100.33" cy="568.79" r="23.61"/>
              <circle class="st283" cx="1106.09" cy="567.04" r="23.61"/>
              <circle class="st83" cx="1111.78" cy="564.86" r="23.61"/>
              <circle class="st72" cx="1117.38" cy="562.23" r="23.61"/>
              <circle class="st13" cx="1120.02" cy="560.82" r="23.61"/>
              <circle class="st293" cx="1122.59" cy="559.33" r="23.61"/>
              <circle class="st318" cx="1125.08" cy="557.76" r="23.61"/>
              <circle class="st292" cx="1127.51" cy="556.12" r="23.61"/>
              <circle class="st40" cx="1129.86" cy="554.4" r="23.61"/>
              <circle class="st234" cx="1132.14" cy="552.62" r="23.61"/>
              <circle class="st2" cx="1134.34" cy="550.77" r="23.61"/>
              <circle class="st157" cx="1136.48" cy="548.85" r="23.61"/>
              <circle class="st132" cx="1138.53" cy="546.87" r="23.61"/>
              <circle class="st141" cx="1140.51" cy="544.83" r="23.61"/>
              <circle class="st289" cx="1142.42" cy="542.73" r="23.61"/>
              <circle class="st133" cx="1144.25" cy="540.57" r="23.61"/>
              <circle class="st77" cx="1146" cy="538.36" r="23.61"/>
              <circle class="st119" cx="1147.67" cy="536.1" r="23.61"/>
              <circle class="st233" cx="1149.26" cy="533.79" r="23.61"/>
              <circle class="st63" cx="1150.77" cy="531.43" r="23.61"/>
              <circle class="st128" cx="1152.2" cy="529.03" r="23.61"/>
              <circle class="st196" cx="1153.55" cy="526.58" r="23.61"/>
              <circle class="st235" cx="1154.81" cy="524.1" r="23.61"/>
              <circle class="st323" cx="1156" cy="521.58" r="23.61"/>
              <circle class="st275" cx="1157.1" cy="519.02" r="23.61"/>
              <circle class="st334" cx="1158.11" cy="516.42" r="23.61"/>
              <circle class="st5" cx="1159.04" cy="513.8" r="23.61"/>
              <circle class="st79" cx="1159.88" cy="511.15" r="23.61"/>
              <circle class="st21" cx="1160.64" cy="508.47" r="23.61"/>
              <circle class="st56" cx="1161.31" cy="505.77" r="23.61"/>
              <circle class="st38" cx="1161.89" cy="503.04" r="23.61"/>
              <circle class="st324" cx="1162.38" cy="500.3" r="23.61"/>
              <circle class="st179" cx="1162.78" cy="497.54" r="23.61"/>
              <circle class="st312" cx="1163.09" cy="494.76" r="23.61"/>
              <circle class="st17" cx="1163.31" cy="491.98" r="23.61"/>
              <circle class="st71" cx="1163.44" cy="489.18" r="23.61"/>
              <circle class="st124" cx="1163.48" cy="486.37" r="23.61"/>
              <circle class="st303" cx="1163.42" cy="483.56" r="23.61"/>
              <circle class="st81" cx="1163.26" cy="480.74" r="23.61"/>
              <circle class="st51" cx="1163.02" cy="477.92" r="23.61"/>
              <circle class="st261" cx="1162.67" cy="475.11" r="23.61"/>
              <circle class="st49" cx="1162.23" cy="472.3" r="23.61"/>
              <circle class="st19" cx="1161.7" cy="469.49" r="23.61"/>
              <circle class="st298" cx="1161.06" cy="466.69" r="23.61"/>
              <circle class="st23" cx="1160.33" cy="463.9" r="23.61"/>
              <circle class="st297" cx="1159.5" cy="461.13" r="23.61"/>
              <circle class="st101" cx="1158.56" cy="458.36" r="23.61"/>
              <circle class="st198" cx="1157.53" cy="455.62" r="23.61"/>
              <circle class="st294" cx="1156.4" cy="452.9" r="23.61"/>
              <circle class="st258" cx="1155.16" cy="450.19" r="23.61"/>
              <circle class="st206" cx="1153.82" cy="447.52" r="23.61"/>
              <circle class="st163" cx="1152.39" cy="444.89" r="23.61"/>
              <circle class="st265" cx="1150.88" cy="442.34" r="23.61"/>
              <circle class="st302" cx="1149.3" cy="439.86" r="23.61"/>
              <circle class="st315" cx="1147.64" cy="437.45" r="23.61"/>
              <circle class="st61" cx="1145.92" cy="435.11" r="23.61"/>
              <circle class="st244" cx="1144.12" cy="432.85" r="23.61"/>
              <circle class="st266" cx="1142.25" cy="430.65" r="23.61"/>
              <circle class="st103" cx="1140.32" cy="428.54" r="23.61"/>
              <circle class="st274" cx="1138.33" cy="426.5" r="23.61"/>
              <circle class="st223" cx="1136.28" cy="424.53" r="23.61"/>
              <circle class="st247" cx="1134.16" cy="422.64" r="23.61"/>
              <circle class="st60" cx="1132" cy="420.83" r="23.61"/>
              <circle class="st296" cx="1129.78" cy="419.1" r="23.61"/>
              <circle class="st0" cx="1127.5" cy="417.44" r="23.61"/>
              <circle class="st6" cx="1125.18" cy="415.87" r="23.61"/>
              <circle class="st18" cx="1122.82" cy="414.37" r="23.61"/>
              <circle class="st183" cx="1120.4" cy="412.96" r="23.61"/>
              <circle class="st96" cx="1117.95" cy="411.63" r="23.61"/>
              <circle class="st145" cx="1115.46" cy="410.38" r="23.61"/>
              <circle class="st330" cx="1112.93" cy="409.21" r="23.61"/>
              <circle class="st207" cx="1110.36" cy="408.13" r="23.61"/>
              <circle class="st314" cx="1107.76" cy="407.13" r="23.61"/>
              <circle class="st161" cx="1105.13" cy="406.22" r="23.61"/>
              <circle class="st47" cx="1102.48" cy="405.39" r="23.61"/>
              <circle class="st232" cx="1099.79" cy="404.65" r="23.61"/>
              <circle class="st309" cx="1097.09" cy="404" r="23.61"/>
              <circle class="st224" cx="1094.36" cy="403.44" r="23.61"/>
              <circle class="st11" cx="1091.61" cy="402.97" r="23.61"/>
              <circle class="st104" cx="1088.85" cy="402.58" r="23.61"/>
              <circle class="st215" cx="1086.07" cy="402.29" r="23.61"/>
              <circle class="st277" cx="1083.28" cy="402.09" r="23.61"/>
              <circle class="st186" cx="1080.48" cy="401.98" r="23.61"/>
              <circle class="st88" cx="1077.67" cy="401.97" r="23.61"/>
              <circle class="st174" cx="1074.86" cy="402.04" r="23.61"/>
              <circle class="st105" cx="1072.04" cy="402.21" r="23.61"/>
              <circle class="st320" cx="1069.22" cy="402.48" r="23.61"/>
              <circle class="st144" cx="1066.41" cy="402.84" r="23.61"/>
              <circle class="st216" cx="1063.59" cy="403.3" r="23.61"/>
              <circle class="st156" cx="1060.79" cy="403.86" r="23.61"/>
              <circle class="st87" cx="1057.99" cy="404.51" r="23.61"/>
              <circle class="st69" cx="1055.21" cy="405.27" r="23.61"/>
              <circle class="st164" cx="1052.43" cy="406.12" r="23.61"/>
              <circle class="st268" cx="1049.67" cy="407.07" r="23.61"/>
              <circle class="st53" cx="1046.93" cy="408.13" r="23.61"/>
              <circle class="st46" cx="1044.21" cy="409.28" r="23.61"/>
              <circle class="st112" cx="1041.52" cy="410.54" r="23.61"/>
              <circle class="st238" cx="1038.9" cy="411.86" r="23.61"/>
              <circle class="st301" cx="1036.36" cy="413.16" r="23.61"/>
              <circle class="st286" cx="1033.82" cy="414.45" r="23.61"/>
              <circle class="st12" cx="1031.29" cy="415.74" r="23.61"/>
              <circle class="st122" cx="1028.75" cy="417.04" r="23.61"/>
              <circle class="st199" cx="1026.21" cy="418.33" r="23.61"/>
              <circle class="st148" cx="1023.68" cy="419.62" r="23.61"/>
              <circle class="st249" cx="1021.14" cy="420.92" r="23.61"/>
              <circle class="st326" cx="1018.61" cy="422.21" r="23.61"/>
              <circle class="st75" cx="1016.07" cy="423.51" r="23.61"/>
              <circle class="st16" cx="1013.53" cy="424.8" r="23.61"/>
              <circle class="st288" cx="1011" cy="426.09" r="23.61"/>
              <circle class="st189" cx="1006.26" cy="428.51" r="23.61"/>
              <circle class="st240" cx="1001.51" cy="430.93" r="23.61"/>
              <circle class="st276" cx="996.77" cy="433.35" r="23.61"/>
              <circle class="st230" cx="992.03" cy="435.77" r="23.61"/>
              <circle class="st178" cx="987.28" cy="438.19" r="23.61"/>
              <circle class="st300" cx="982.54" cy="440.61" r="23.61"/>
              <circle class="st118" cx="977.8" cy="443.03" r="23.61"/>
              <circle class="st57" cx="973.05" cy="445.45" r="23.61"/>
              <circle class="st67" cx="968.31" cy="447.87" r="23.61"/>
              <circle class="st177" cx="963.57" cy="449.43" r="23.61"/>
              <circle class="st262" cx="958.83" cy="447.01" r="23.61"/>
              <circle class="st45" cx="954.09" cy="444.58" r="23.61"/>
              <path class="st80" d="M911.53,434.87c0-13.04,10.57-23.61,23.61-23.61s23.61,10.57,23.61,23.61-10.57,23.61-23.61,23.61"/>
              <circle class="st142" cx="906.71" cy="420.3" r="23.61"/>
              <circle class="st290" cx="901.97" cy="417.87" r="23.61"/>
              <circle class="st86" cx="897.23" cy="415.44" r="23.61"/>
              <circle class="st270" cx="892.49" cy="413.01" r="23.61"/>
              <circle class="st211" cx="887.75" cy="410.59" r="23.61"/>
              <circle class="st115" cx="883.01" cy="408.16" r="23.61"/>
              <circle class="st229" cx="878.27" cy="405.73" r="23.61"/>
              <circle class="st39" cx="873.4" cy="403.11" r="23.61"/>
              <circle class="st188" cx="868.68" cy="400.23" r="23.61"/>
              <circle class="st65" cx="864.18" cy="397.13" r="23.61"/>
              <circle class="st147" cx="859.9" cy="393.81" r="23.61"/>
              <circle class="st82" cx="855.84" cy="390.28" r="23.61"/>
              <circle class="st252" cx="852.01" cy="386.57" r="23.61"/>
              <circle class="st307" cx="848.41" cy="382.67" r="23.61"/>
              <circle class="st129" cx="845.05" cy="378.6" r="23.61"/>
              <circle class="st190" cx="841.92" cy="374.37" r="23.61"/>
              <circle class="st106" cx="839.04" cy="369.99" r="23.61"/>
              <circle class="st52" cx="836.4" cy="365.48" r="23.61"/>
              <circle class="st114" cx="834.02" cy="360.84" r="23.61"/>
              <circle class="st217" cx="831.88" cy="356.09" r="23.61"/>
              <circle class="st84" cx="830" cy="351.23" r="23.61"/>
              <circle class="st170" cx="828.38" cy="346.29" r="23.61"/>
              <circle class="st59" cx="827.03" cy="341.26" r="23.61"/>
              <circle class="st280" cx="825.94" cy="336.17" r="23.61"/>
              <circle class="st167" cx="825.13" cy="331.01" r="23.61"/>
              <circle class="st153" cx="824.59" cy="325.82" r="23.61"/>
            </g>
            <path class="st269" d="M828.54,297.37c-.35-.02-.71-.02-1.06-.05-1.06.14-2.13.25-3.23.25-.25,0-.49-.03-.74-.04-1.37.27-2.79.41-4.24.43-1.03.25-2.09.41-3.17.52-8.98,3.34-15.39,11.96-15.39,22.11,0,13.04,10.57,23.61,23.61,23.61s23.61-10.57,23.61-23.61c0-11.6-8.37-21.22-19.39-23.21Z"/>
            <path class="st94" d="M840.35,298.01c-.21-.04-.43-.07-.64-.12-1.41-.01-2.78-.15-4.12-.4-.29.01-.58.04-.87.04-1.04,0-2.06-.09-3.07-.22-.71.06-1.42.11-2.15.11-.68,0-1.35-.05-2.02-.1-1.06.14-2.13.25-3.23.25-.25,0-.49-.03-.74-.04-1.37.27-2.79.41-4.24.43-1.29.31-2.61.52-3.97.61-1.38.42-2.82.72-4.3.88-1.27.45-2.59.79-3.94,1.02-.46.2-.95.36-1.43.52-3.06,3.98-4.89,8.94-4.89,14.35,0,13.04,10.57,23.61,23.61,23.61s23.61-10.57,23.61-23.61c0-6.85-2.94-13-7.6-17.32Z"/>
            <path class="st219" d="M843.6,298.45c-1.33-.08-2.63-.26-3.89-.55-1.41-.01-2.78-.15-4.12-.4-.29.01-.58.04-.87.04-1.04,0-2.06-.09-3.07-.22-.71.06-1.42.11-2.15.11-.68,0-1.35-.05-2.02-.1-1.06.14-2.13.25-3.23.25-.25,0-.49-.03-.74-.04-1.37.27-2.79.41-4.24.43-1.29.31-2.61.52-3.97.61-1.38.42-2.82.72-4.3.88-1.27.45-2.59.79-3.94,1.02-1.38.58-2.82,1.03-4.32,1.34-.07.03-.14.06-.22.09-.94,2.55-1.48,5.29-1.48,8.17,0,13.04,10.57,23.61,23.61,23.61s23.61-10.57,23.61-23.61c0-4.04-1.02-7.84-2.8-11.16-.63-.13-1.25-.28-1.86-.46Z"/>
            <path class="st89" d="M847.66,299.26c-1.4-.15-2.75-.43-4.06-.81-1.33-.08-2.63-.26-3.89-.55-1.41-.01-2.78-.15-4.12-.4-.29.01-.58.04-.87.04-1.04,0-2.06-.09-3.07-.22-.71.06-1.42.11-2.15.11-.68,0-1.35-.05-2.02-.1-1.06.14-2.13.25-3.23.25-.25,0-.49-.03-.74-.04-1.37.27-2.79.41-4.24.43-1.29.31-2.61.52-3.97.61-1.38.42-2.82.72-4.3.88-1.27.45-2.59.79-3.94,1.02-1.38.58-2.82,1.03-4.32,1.34-.31.15-.64.27-.95.4-.09.85-.15,1.72-.15,2.59,0,13.04,10.57,23.61,23.61,23.61s23.61-10.57,23.61-23.61c0-1.86-.24-3.65-.64-5.38-.18-.06-.37-.1-.55-.16Z"/>
            <path class="st149" d="M847.66,299.26c-1.4-.15-2.75-.43-4.06-.81-1.33-.08-2.63-.26-3.89-.55-1.41-.01-2.78-.15-4.12-.4-.29.01-.58.04-.87.04-1.04,0-2.06-.09-3.07-.22-.71.06-1.42.11-2.15.11-.68,0-1.35-.05-2.02-.1-1.06.14-2.13.25-3.23.25-.25,0-.49-.03-.74-.04-1.37.27-2.79.41-4.24.43-1.29.31-2.61.52-3.97.61-1.38.42-2.82.72-4.3.88-1.27.45-2.59.79-3.94,1.02-1.38.58-2.82,1.03-4.32,1.34-.03.02-.07.03-.1.04,1.16,11.96,11.23,21.3,23.49,21.3,12.94,0,23.44-10.42,23.59-23.32-.7-.16-1.39-.35-2.07-.57Z"/>
            <path class="st78" d="M847.66,299.26c-1.4-.15-2.75-.43-4.06-.81-1.33-.08-2.63-.26-3.89-.55-1.41-.01-2.78-.15-4.12-.4-.29.01-.58.04-.87.04-1.04,0-2.06-.09-3.07-.22-.71.06-1.42.11-2.15.11-.68,0-1.35-.05-2.02-.1-1.06.14-2.13.25-3.23.25-.25,0-.49-.03-.74-.04-1.37.27-2.79.41-4.24.43-1.29.31-2.61.52-3.97.61-1.38.42-2.82.72-4.3.88-1.27.45-2.59.79-3.94,1.02-.75.31-1.51.58-2.3.82,2.97,9.63,11.95,16.64,22.56,16.64s20.38-7.67,22.91-17.99c-.87-.18-1.73-.39-2.56-.67Z"/>
            <path class="st239" d="M847.66,299.26c-1.4-.15-2.75-.43-4.06-.81-1.33-.08-2.63-.26-3.89-.55-1.41-.01-2.78-.15-4.12-.4-.29.01-.58.04-.87.04-1.04,0-2.06-.09-3.07-.22-.71.06-1.42.11-2.15.11-.68,0-1.35-.05-2.02-.1-1.06.14-2.13.25-3.23.25-.25,0-.49-.03-.74-.04-1.37.27-2.79.41-4.24.43-1.29.31-2.61.52-3.97.61-1.38.42-2.82.72-4.3.88-.97.34-1.98.6-3,.82,3.98,7.41,11.8,12.45,20.81,12.45s17.09-5.23,21.01-12.87c-.73-.17-1.45-.36-2.15-.59Z"/>
            <path class="st259" d="M847.66,299.26c-1.4-.15-2.75-.43-4.06-.81-1.33-.08-2.63-.26-3.89-.55-1.41-.01-2.78-.15-4.12-.4-.29.01-.58.04-.87.04-1.04,0-2.06-.09-3.07-.22-.71.06-1.42.11-2.15.11-.68,0-1.35-.05-2.02-.1-1.06.14-2.13.25-3.23.25-.25,0-.49-.03-.74-.04-1.37.27-2.79.41-4.24.43-1.29.31-2.61.52-3.97.61-.88.27-1.79.47-2.72.63,4.33,5.11,10.79,8.36,18.01,8.36s13.44-3.15,17.77-8.1c-.23-.07-.47-.12-.7-.2Z"/>
            <path class="st66" d="M843.6,298.45c-1.33-.08-2.63-.26-3.89-.55-1.41-.01-2.78-.15-4.12-.4-.29.01-.58.04-.87.04-1.04,0-2.06-.09-3.07-.22-.71.06-1.42.11-2.15.11-.68,0-1.35-.05-2.02-.1-1.06.14-2.13.25-3.23.25-.25,0-.49-.03-.74-.04-1.37.27-2.79.41-4.24.43-.11.03-.22.04-.32.06,3.87,2.78,8.61,4.43,13.74,4.43,4.6,0,8.88-1.34,12.51-3.61-.54-.12-1.08-.24-1.6-.39Z"/>
          </g>
          <g>
            <g>
              <circle class="st72" cx="1095.31" cy="273.82" r="23.61"/>
              <circle class="st176" cx="1098.12" cy="279.76" r="23.61"/>
              <circle class="st205" cx="1100.49" cy="285.8" r="23.61"/>
              <circle class="st321" cx="1102.44" cy="291.9" r="23.61"/>
              <circle class="st165" cx="1103.97" cy="298.06" r="23.61"/>
              <circle class="st251" cx="1105.08" cy="304.26" r="23.61"/>
              <circle class="st201" cx="1105.79" cy="310.47" r="23.61"/>
              <circle class="st231" cx="1106.09" cy="316.68" r="23.61"/>
              <circle class="st241" cx="1106" cy="322.87" r="23.61"/>
              <circle class="st8" cx="1105.52" cy="329.02" r="23.61"/>
              <circle class="st1" cx="1104.65" cy="335.11" r="23.61"/>
              <circle class="st332" cx="1103.41" cy="341.13" r="23.61"/>
              <circle class="st333" cx="1101.79" cy="347.05" r="23.61"/>
              <circle class="st213" cx="1099.81" cy="352.86" r="23.61"/>
              <circle class="st271" cx="1097.46" cy="358.54" r="23.61"/>
              <circle class="st202" cx="1094.76" cy="364.06" r="23.61"/>
              <circle class="st126" cx="1091.72" cy="369.42" r="23.61"/>
              <circle class="st284" cx="1088.33" cy="374.59" r="23.61"/>
              <circle class="st85" cx="1084.6" cy="379.55" r="23.61"/>
              <circle class="st158" cx="1080.55" cy="384.29" r="23.61"/>
              <circle class="st248" cx="1076.16" cy="388.78" r="23.61"/>
              <circle class="st127" cx="1071.47" cy="393.01" r="23.61"/>
              <circle class="st152" cx="1066.45" cy="396.96" r="23.61"/>
              <circle class="st254" cx="1061.14" cy="400.62" r="23.61"/>
              <circle class="st14" cx="1055.52" cy="403.95" r="23.61"/>
              <circle class="st304" cx="1049.82" cy="406.91" r="23.61"/>
              <circle class="st243" cx="1044.24" cy="409.78" r="23.61"/>
              <circle class="st125" cx="1038.65" cy="412.64" r="23.61"/>
              <circle class="st278" cx="1033.06" cy="415.51" r="23.61"/>
              <circle class="st322" cx="1027.47" cy="418.37" r="23.61"/>
              <circle class="st255" cx="1021.88" cy="421.23" r="23.61"/>
              <circle class="st55" cx="1016.29" cy="424.1" r="23.61"/>
              <circle class="st162" cx="1010.7" cy="426.96" r="23.61"/>
              <circle class="st168" cx="1005.11" cy="429.82" r="23.61"/>
              <circle class="st227" cx="999.52" cy="432.69" r="23.61"/>
              <circle class="st41" cx="993.93" cy="435.55" r="23.61"/>
              <circle class="st37" cx="988.35" cy="438.41" r="23.61"/>
              <circle class="st44" cx="982.76" cy="441.28" r="23.61"/>
              <circle class="st226" cx="977.17" cy="444.14" r="23.61"/>
              <circle class="st187" cx="971.58" cy="447.01" r="23.61"/>
              <circle class="st3" cx="965.99" cy="449.86" r="23.61"/>
              <circle class="st325" cx="960.39" cy="447" r="23.61"/>
              <circle class="st236" cx="954.8" cy="444.15" r="23.61"/>
              <circle class="st184" cx="949.21" cy="441.3" r="23.61"/>
              <circle class="st327" cx="938.02" cy="435.59" r="23.61"/>
              <circle class="st313" cx="932.42" cy="432.74" r="23.61"/>
              <circle class="st95" cx="921.24" cy="427.03" r="23.61"/>
              <circle class="st137" cx="915.64" cy="424.17" r="23.61"/>
              <circle class="st291" cx="910.57" cy="421.59" r="23.61"/>
              <circle class="st299" cx="905.49" cy="419" r="23.61"/>
              <circle class="st117" cx="900.42" cy="416.41" r="23.61"/>
              <circle class="st110" cx="895.35" cy="413.82" r="23.61"/>
              <circle class="st263" cx="890.26" cy="411.23" r="23.61"/>
              <circle class="st166" cx="884.87" cy="408.71" r="23.61"/>
              <circle class="st222" cx="879.38" cy="406.6" r="23.61"/>
              <circle class="st220" cx="873.84" cy="404.89" r="23.61"/>
              <circle class="st20" cx="868.24" cy="403.58" r="23.61"/>
              <circle class="st120" cx="862.62" cy="402.66" r="23.61"/>
              <circle class="st305" cx="856.98" cy="402.12" r="23.61"/>
              <circle class="st108" cx="851.36" cy="401.96" r="23.61"/>
              <circle class="st319" cx="845.75" cy="402.18" r="23.61"/>
              <circle class="st143" cx="840.2" cy="402.76" r="23.61"/>
              <circle class="st250" cx="834.7" cy="403.71" r="23.61"/>
              <circle class="st107" cx="829.28" cy="405.01" r="23.61"/>
              <circle class="st197" cx="823.97" cy="406.66" r="23.61"/>
              <circle class="st282" cx="818.77" cy="408.65" r="23.61"/>
              <circle class="st22" cx="813.71" cy="410.99" r="23.61"/>
              <circle class="st242" cx="808.8" cy="413.65" r="23.61"/>
              <circle class="st159" cx="804.06" cy="416.64" r="23.61"/>
              <circle class="st62" cx="799.52" cy="419.95" r="23.61"/>
              <circle class="st182" cx="795.18" cy="423.57" r="23.61"/>
              <circle class="st204" cx="791.08" cy="427.51" r="23.61"/>
              <circle class="st337" cx="787.21" cy="431.74" r="23.61"/>
              <circle class="st193" cx="783.62" cy="436.27" r="23.61"/>
              <circle class="st93" cx="780.3" cy="441.09" r="23.61"/>
              <circle class="st306" cx="777.29" cy="446.2" r="23.61"/>
              <circle class="st295" cx="774.61" cy="451.55" r="23.61"/>
              <circle class="st42" cx="772.34" cy="457" r="23.61"/>
              <circle class="st150" cx="770.48" cy="462.52" r="23.61"/>
              <circle class="st123" cx="769.01" cy="468.1" r="23.61"/>
              <circle class="st109" cx="767.94" cy="473.71" r="23.61"/>
              <circle class="st209" cx="767.25" cy="479.34" r="23.61"/>
              <circle class="st210" cx="766.95" cy="484.98" r="23.61"/>
              <circle class="st100" cx="767.02" cy="490.59" r="23.61"/>
              <circle class="st9" cx="767.46" cy="496.17" r="23.61"/>
              <circle class="st76" cx="768.26" cy="501.69" r="23.61"/>
              <circle class="st264" cx="769.42" cy="507.14" r="23.61"/>
              <circle class="st151" cx="770.94" cy="512.5" r="23.61"/>
              <circle class="st225" cx="772.8" cy="517.74" r="23.61"/>
              <circle class="st336" cx="775" cy="522.86" r="23.61"/>
              <circle class="st273" cx="777.53" cy="527.83" r="23.61"/>
              <circle class="st308" cx="780.39" cy="532.64" r="23.61"/>
              <circle class="st99" cx="783.58" cy="537.26" r="23.61"/>
              <circle class="st98" cx="787.08" cy="541.68" r="23.61"/>
              <circle class="st221" cx="790.89" cy="545.88" r="23.61"/>
              <circle class="st70" cx="795.01" cy="549.84" r="23.61"/>
              <circle class="st253" cx="799.42" cy="553.54" r="23.61"/>
              <circle class="st50" cx="804.13" cy="556.97" r="23.61"/>
              <circle class="st257" cx="809.13" cy="560.1" r="23.61"/>
              <circle class="st169" cx="814.4" cy="562.92" r="23.61"/>
              <circle class="st175" cx="819.81" cy="565.35" r="23.61"/>
              <circle class="st68" cx="825.31" cy="567.38" r="23.61"/>
              <circle class="st245" cx="830.87" cy="569" r="23.61"/>
              <circle class="st172" cx="836.47" cy="570.23" r="23.61"/>
              <circle class="st131" cx="842.1" cy="571.07" r="23.61"/>
              <circle class="st267" cx="847.16" cy="571.49" r="23.61"/>
              <circle class="st140" cx="852.93" cy="571.6" r="23.61"/>
              <circle class="st54" cx="858.11" cy="571.37" r="23.61"/>
              <circle class="st316" cx="863.25" cy="570.82" r="23.61"/>
              <circle class="st208" cx="868.33" cy="569.96" r="23.61"/>
              <circle class="st154" cx="873.35" cy="568.8" r="23.61"/>
              <circle class="st74" cx="878.28" cy="567.34" r="23.61"/>
              <circle class="st311" cx="883.12" cy="565.58" r="23.61"/>
              <circle class="st279" cx="887.85" cy="563.53" r="23.61"/>
              <circle class="st185" cx="892.45" cy="561.2" r="23.61"/>
              <circle class="st91" cx="896.91" cy="558.59" r="23.61"/>
              <circle class="st171" cx="901.21" cy="555.7" r="23.61"/>
              <circle class="st194" cx="905.35" cy="552.54" r="23.61"/>
              <circle class="st10" cx="909.3" cy="549.11" r="23.61"/>
              <circle class="st192" cx="913.06" cy="545.42" r="23.61"/>
              <circle class="st237" cx="916.6" cy="541.47" r="23.61"/>
              <circle class="st73" cx="919.91" cy="537.27" r="23.61"/>
              <circle class="st191" cx="922.99" cy="532.82" r="23.61"/>
              <circle class="st285" cx="925.8" cy="528.13" r="23.61"/>
              <circle class="st287" cx="928.32" cy="523.34" r="23.61"/>
              <circle class="st256" cx="930.72" cy="518.65" r="23.61"/>
              <circle class="st200" cx="933.13" cy="513.97" r="23.61"/>
              <circle class="st58" cx="935.53" cy="509.28" r="23.61"/>
              <circle class="st180" cx="937.94" cy="504.6" r="23.61"/>
              <circle class="st134" cx="940.34" cy="499.92" r="23.61"/>
              <circle class="st139" cx="942.75" cy="495.23" r="23.61"/>
              <circle class="st15" cx="945.15" cy="490.55" r="23.61"/>
              <circle class="st335" cx="947.56" cy="485.86" r="23.61"/>
              <circle class="st90" cx="949.96" cy="481.18" r="23.61"/>
              <circle class="st136" cx="952.37" cy="476.49" r="23.61"/>
              <circle class="st329" cx="954.77" cy="471.81" r="23.61"/>
              <circle class="st331" cx="957.17" cy="467.12" r="23.61"/>
              <circle class="st92" cx="959.58" cy="462.44" r="23.61"/>
              <circle class="st135" cx="961.98" cy="457.76" r="23.61"/>
              <circle class="st260" cx="964.39" cy="453.07" r="23.61"/>
              <circle class="st111" cx="966.51" cy="448.27" r="23.61"/>
              <circle class="st48" cx="968.13" cy="443.26" r="23.61"/>
              <circle class="st214" cx="969.74" cy="438.24" r="23.61"/>
              <circle class="st113" cx="971.36" cy="433.23" r="23.61"/>
              <circle class="st181" cx="972.97" cy="428.22" r="23.61"/>
              <circle class="st160" cx="974.58" cy="423.21" r="23.61"/>
              <circle class="st195" cx="976.2" cy="418.2" r="23.61"/>
              <circle class="st328" cx="977.81" cy="413.18" r="23.61"/>
              <circle class="st116" cx="979.43" cy="408.17" r="23.61"/>
              <circle class="st4" cx="981.04" cy="403.16" r="23.61"/>
              <circle class="st138" cx="982.65" cy="398.15" r="23.61"/>
              <circle class="st155" cx="984.27" cy="393.13" r="23.61"/>
              <circle class="st7" cx="985.88" cy="388.12" r="23.61"/>
              <circle class="st130" cx="987.5" cy="383.11" r="23.61"/>
              <circle class="st272" cx="989.11" cy="378.1" r="23.61"/>
              <circle class="st203" cx="990.72" cy="373.09" r="23.61"/>
              <circle class="st228" cx="992.34" cy="368.07" r="23.61"/>
              <circle class="st64" cx="993.95" cy="363.06" r="23.61"/>
              <circle class="st283" cx="995.57" cy="358.05" r="23.61"/>
              <circle class="st83" cx="997.18" cy="353.04" r="23.61"/>
              <circle class="st72" cx="998.79" cy="348.03" r="23.61"/>
              <circle class="st13" cx="999.87" cy="344.84" r="23.61"/>
              <circle class="st293" cx="1001.04" cy="341.7" r="23.61"/>
              <circle class="st318" cx="1002.3" cy="338.63" r="23.61"/>
              <circle class="st292" cx="1003.65" cy="335.61" r="23.61"/>
              <circle class="st40" cx="1005.08" cy="332.65" r="23.61"/>
              <circle class="st234" cx="1006.59" cy="329.75" r="23.61"/>
              <circle class="st2" cx="1008.18" cy="326.91" r="23.61"/>
              <circle class="st157" cx="1009.85" cy="324.14" r="23.61"/>
              <circle class="st132" cx="1011.59" cy="321.43" r="23.61"/>
              <circle class="st141" cx="1013.41" cy="318.78" r="23.61"/>
              <circle class="st289" cx="1015.31" cy="316.19" r="23.61"/>
              <circle class="st133" cx="1017.27" cy="313.68" r="23.61"/>
              <circle class="st77" cx="1019.3" cy="311.22" r="23.61"/>
              <circle class="st119" cx="1021.41" cy="308.84" r="23.61"/>
              <circle class="st233" cx="1023.57" cy="306.53" r="23.61"/>
              <circle class="st63" cx="1025.8" cy="304.28" r="23.61"/>
              <circle class="st128" cx="1028.09" cy="302.11" r="23.61"/>
              <circle class="st196" cx="1030.44" cy="300.01" r="23.61"/>
              <circle class="st235" cx="1032.84" cy="297.98" r="23.61"/>
              <circle class="st323" cx="1035.31" cy="296.03" r="23.61"/>
              <circle class="st275" cx="1037.82" cy="294.15" r="23.61"/>
              <circle class="st334" cx="1040.39" cy="292.34" r="23.61"/>
              <circle class="st5" cx="1043" cy="290.62" r="23.61"/>
              <circle class="st79" cx="1045.67" cy="288.97" r="23.61"/>
              <circle class="st21" cx="1048.38" cy="287.4" r="23.61"/>
              <circle class="st56" cx="1051.13" cy="285.91" r="23.61"/>
              <circle class="st38" cx="1053.93" cy="284.5" r="23.61"/>
              <circle class="st324" cx="1056.77" cy="283.17" r="23.61"/>
              <circle class="st179" cx="1059.64" cy="281.92" r="23.61"/>
              <circle class="st312" cx="1062.55" cy="280.76" r="23.61"/>
              <circle class="st17" cx="1065.5" cy="279.68" r="23.61"/>
              <circle class="st71" cx="1068.48" cy="278.69" r="23.61"/>
              <circle class="st124" cx="1071.48" cy="277.79" r="23.61"/>
              <circle class="st303" cx="1074.52" cy="276.97" r="23.61"/>
              <circle class="st81" cx="1077.58" cy="276.24" r="23.61"/>
              <circle class="st51" cx="1080.67" cy="275.6" r="23.61"/>
              <circle class="st261" cx="1083.78" cy="275.05" r="23.61"/>
              <circle class="st49" cx="1086.92" cy="274.6" r="23.61"/>
              <circle class="st19" cx="1090.07" cy="274.23" r="23.61"/>
              <circle class="st298" cx="1093.24" cy="273.96" r="23.61"/>
              <circle class="st23" cx="1096.42" cy="273.79" r="23.61"/>
              <circle class="st297" cx="1099.62" cy="273.7" r="23.61"/>
              <circle class="st101" cx="1102.83" cy="273.72" r="23.61"/>
              <circle class="st198" cx="1106.05" cy="273.83" r="23.61"/>
              <circle class="st294" cx="1109.27" cy="274.04" r="23.61"/>
              <circle class="st258" cx="1112.5" cy="274.36" r="23.61"/>
              <circle class="st206" cx="1115.74" cy="274.77" r="23.61"/>
              <circle class="st163" cx="1118.97" cy="275.28" r="23.61"/>
              <circle class="st265" cx="1122.21" cy="275.9" r="23.61"/>
              <circle class="st302" cx="1125.44" cy="276.61" r="23.61"/>
              <circle class="st315" cx="1128.67" cy="277.44" r="23.61"/>
              <circle class="st61" cx="1131.9" cy="278.36" r="23.61"/>
              <circle class="st244" cx="1135.11" cy="279.4" r="23.61"/>
              <circle class="st266" cx="1138.27" cy="280.52" r="23.61"/>
              <circle class="st103" cx="1141.38" cy="281.74" r="23.61"/>
              <circle class="st274" cx="1144.42" cy="283.04" r="23.61"/>
              <circle class="st223" cx="1147.41" cy="284.43" r="23.61"/>
              <circle class="st247" cx="1150.34" cy="285.9" r="23.61"/>
              <circle class="st60" cx="1153.21" cy="287.45" r="23.61"/>
              <circle class="st296" cx="1156.02" cy="289.08" r="23.61"/>
              <circle class="st0" cx="1158.76" cy="290.79" r="23.61"/>
              <circle class="st6" cx="1161.44" cy="292.57" r="23.61"/>
              <circle class="st18" cx="1164.06" cy="294.43" r="23.61"/>
              <circle class="st183" cx="1166.61" cy="296.36" r="23.61"/>
              <circle class="st96" cx="1169.09" cy="298.35" r="23.61"/>
              <circle class="st145" cx="1171.51" cy="300.42" r="23.61"/>
              <circle class="st330" cx="1173.86" cy="302.55" r="23.61"/>
              <circle class="st207" cx="1176.14" cy="304.75" r="23.61"/>
              <circle class="st314" cx="1178.35" cy="307.01" r="23.61"/>
              <circle class="st161" cx="1180.48" cy="309.33" r="23.61"/>
              <circle class="st47" cx="1182.55" cy="311.71" r="23.61"/>
              <circle class="st232" cx="1184.54" cy="314.14" r="23.61"/>
              <circle class="st309" cx="1186.46" cy="316.63" r="23.61"/>
              <circle class="st224" cx="1188.3" cy="319.17" r="23.61"/>
              <circle class="st11" cx="1190.06" cy="321.76" r="23.61"/>
              <circle class="st104" cx="1191.75" cy="324.41" r="23.61"/>
              <circle class="st215" cx="1193.36" cy="327.09" r="23.61"/>
              <circle class="st277" cx="1194.89" cy="329.83" r="23.61"/>
              <circle class="st186" cx="1196.34" cy="332.6" r="23.61"/>
              <circle class="st88" cx="1197.71" cy="335.42" r="23.61"/>
              <circle class="st174" cx="1199" cy="338.27" r="23.61"/>
              <circle class="st105" cx="1200.2" cy="341.17" r="23.61"/>
              <circle class="st320" cx="1201.32" cy="344.1" r="23.61"/>
              <circle class="st144" cx="1202.36" cy="347.06" r="23.61"/>
              <circle class="st216" cx="1203.31" cy="350.05" r="23.61"/>
              <circle class="st156" cx="1204.17" cy="353.07" r="23.61"/>
              <circle class="st87" cx="1204.94" cy="356.12" r="23.61"/>
              <circle class="st69" cx="1205.62" cy="359.2" r="23.61"/>
              <circle class="st164" cx="1206.22" cy="362.3" r="23.61"/>
              <circle class="st268" cx="1206.72" cy="365.42" r="23.61"/>
              <circle class="st53" cx="1207.13" cy="368.57" r="23.61"/>
              <circle class="st46" cx="1207.45" cy="371.73" r="23.61"/>
              <circle class="st112" cx="1207.67" cy="374.9" r="23.61"/>
              <circle class="st238" cx="1207.8" cy="378.09" r="23.61"/>
              <circle class="st301" cx="1207.83" cy="381.3" r="23.61"/>
              <circle class="st286" cx="1207.77" cy="384.51" r="23.61"/>
              <circle class="st12" cx="1207.61" cy="387.73" r="23.61"/>
              <circle class="st122" cx="1207.35" cy="390.96" r="23.61"/>
              <circle class="st199" cx="1206.99" cy="394.19" r="23.61"/>
              <circle class="st148" cx="1206.52" cy="397.43" r="23.61"/>
              <circle class="st249" cx="1205.96" cy="400.67" r="23.61"/>
              <circle class="st326" cx="1205.29" cy="403.9" r="23.61"/>
              <circle class="st75" cx="1204.52" cy="407.14" r="23.61"/>
              <circle class="st16" cx="1203.65" cy="410.36" r="23.61"/>
              <circle class="st288" cx="1202.67" cy="413.58" r="23.61"/>
              <circle class="st189" cx="1201.04" cy="418.27" r="23.61"/>
              <circle class="st240" cx="1199.22" cy="422.84" r="23.61"/>
              <circle class="st276" cx="1197.21" cy="427.28" r="23.61"/>
              <circle class="st230" cx="1195.02" cy="431.59" r="23.61"/>
              <circle class="st178" cx="1192.65" cy="435.76" r="23.61"/>
              <circle class="st300" cx="1190.12" cy="439.8" r="23.61"/>
              <circle class="st118" cx="1187.42" cy="443.71" r="23.61"/>
              <circle class="st57" cx="1184.56" cy="447.46" r="23.61"/>
              <circle class="st67" cx="1181.56" cy="451.08" r="23.61"/>
              <circle class="st177" cx="1178.41" cy="454.54" r="23.61"/>
              <circle class="st262" cx="1175.11" cy="457.86" r="23.61"/>
              <circle class="st45" cx="1171.69" cy="461.01" r="23.61"/>
              <circle class="st146" cx="1168.14" cy="464.01" r="23.61"/>
              <circle class="st281" cx="1164.47" cy="466.85" r="23.61"/>
              <circle class="st97" cx="1160.69" cy="469.52" r="23.61"/>
              <circle class="st80" cx="1156.8" cy="472.03" r="23.61"/>
              <circle class="st102" cx="1152.81" cy="474.36" r="23.61"/>
              <circle class="st310" cx="1148.72" cy="476.53" r="23.61"/>
              <circle class="st317" cx="1144.54" cy="478.51" r="23.61"/>
              <circle class="st212" cx="1140.28" cy="480.31" r="23.61"/>
              <circle class="st218" cx="1135.95" cy="481.93" r="23.61"/>
              <circle class="st142" cx="1131.54" cy="483.36" r="23.61"/>
              <circle class="st290" cx="1127.07" cy="484.61" r="23.61"/>
              <circle class="st86" cx="1122.53" cy="485.66" r="23.61"/>
              <circle class="st270" cx="1117.95" cy="486.51" r="23.61"/>
              <circle class="st211" cx="1113.32" cy="487.16" r="23.61"/>
              <circle class="st115" cx="1108.65" cy="487.62" r="23.61"/>
              <circle class="st229" cx="1103.95" cy="487.86" r="23.61"/>
              <circle class="st39" cx="1099.22" cy="487.9" r="23.61"/>
              <circle class="st188" cx="1094.47" cy="487.72" r="23.61"/>
              <circle class="st65" cx="1089.7" cy="487.33" r="23.61"/>
              <circle class="st147" cx="1084.92" cy="486.73" r="23.61"/>
              <circle class="st82" cx="1080.15" cy="485.89" r="23.61"/>
              <circle class="st252" cx="1075.37" cy="484.84" r="23.61"/>
              <circle class="st307" cx="1070.6" cy="483.56" r="23.61"/>
              <circle class="st129" cx="1065.96" cy="482.11" r="23.61"/>
              <circle class="st190" cx="1061.44" cy="480.7" r="23.61"/>
              <circle class="st106" cx="1056.93" cy="479.28" r="23.61"/>
              <circle class="st52" cx="1052.41" cy="477.86" r="23.61"/>
              <circle class="st114" cx="1047.9" cy="476.45" r="23.61"/>
              <circle class="st217" cx="1043.39" cy="475.03" r="23.61"/>
              <circle class="st84" cx="1038.87" cy="473.61" r="23.61"/>
              <circle class="st170" cx="1034.36" cy="472.2" r="23.61"/>
              <circle class="st59" cx="1029.85" cy="470.78" r="23.61"/>
              <circle class="st280" cx="1025.33" cy="469.36" r="23.61"/>
              <circle class="st167" cx="1020.82" cy="467.95" r="23.61"/>
              <circle class="st153" cx="1016.3" cy="466.53" r="23.61"/>
              <circle class="st269" cx="1011.79" cy="465.11" r="23.61"/>
            </g>
            <path class="st94" d="M1007.28,440.09c-7.04,0-13.34,3.1-17.66,7.98l-5.91,14.82c0,.27-.04.53-.04.81,0,13.04,10.57,23.61,23.61,23.61s23.61-10.57,23.61-23.61-10.57-23.61-23.61-23.61Z"/>
            <path class="st219" d="M1002.76,438.67c-3.73,0-7.24.89-10.37,2.42l-11.73,29.43c3.35,8.96,11.96,15.36,22.1,15.36,13.04,0,23.61-10.57,23.61-23.61s-10.57-23.61-23.61-23.61Z"/>
            <path class="st89" d="M998.25,437.26c-1.54,0-3.04.16-4.5.44l-14.7,36.88c4.28,5.99,11.27,9.9,19.2,9.9,13.04,0,23.61-10.57,23.61-23.61s-10.57-23.61-23.61-23.61Z"/>
            <path class="st149" d="M994.47,435.88l-16.41,41.19c4.17,3.71,9.65,5.99,15.68,5.99,13.04,0,23.61-10.57,23.61-23.61s-10.18-23.18-22.87-23.57Z"/>
            <path class="st78" d="M994.78,435.11l-17.29,43.39c3.46,1.99,7.46,3.14,11.73,3.14,13.04,0,23.61-10.57,23.61-23.61,0-11.12-7.7-20.42-18.05-22.92Z"/>
            <path class="st239" d="M994.72,435.26l-17.44,43.76c2.34.77,4.83,1.21,7.42,1.21,13.04,0,23.61-10.57,23.61-23.61,0-9.45-5.57-17.59-13.6-21.36Z"/>
          </g>
          <path class="st25" d="M1129.04,312.26c.05-.65.1-1.3.1-1.96,0-1.98-.27-3.89-.73-5.73,0-.16.02-.32.02-.48,0-.74-.05-1.48-.11-2.2-.81-.23-1.61-.49-2.38-.81-.76-.19-1.51-.42-2.25-.68-.93-.19-1.84-.45-2.73-.75-.91-.16-1.81-.37-2.68-.63-.76-.12-1.51-.27-2.24-.46-.89-.1-1.75-.26-2.61-.45-.93-.08-1.85-.2-2.75-.39-.78-.05-1.54-.14-2.3-.26-.82-.02-1.63-.08-2.43-.19-.06,0-.11,0-.17,0-.87,0-1.73-.05-2.57-.15-.22,0-.43.03-.65.03-.59,0-1.18-.05-1.76-.09-.48.03-.96.07-1.45.07-.27,0-.53-.03-.8-.04-.79.08-1.59.12-2.4.12-.08,0-.16-.01-.25-.01-.04,0-.09,0-.13,0-.81.1-1.64.15-2.48.17-.73.11-1.47.18-2.23.22-.82.16-1.66.26-2.51.33-.87.19-1.76.34-2.66.43-.73.17-1.47.31-2.22.42-.75.21-1.51.38-2.29.52-.46.15-.94.24-1.41.36.09.24.15.5.25.74.18,1.66.53,3.27,1.04,4.81.07,1.58.3,3.12.67,4.61,0,.16-.02.32-.02.48,0,1.45.15,2.87.4,4.25-.05.65-.1,1.3-.1,1.96,0,.95.07,1.88.18,2.79-.16,1.11-.27,2.24-.27,3.4,0,.39.04.77.06,1.15-.33,1.54-.52,3.14-.53,4.78-.41,1.47-.67,2.99-.79,4.56-.5,1.43-.86,2.91-1.07,4.45-.63,1.48-1.1,3.03-1.42,4.64-.67,1.36-1.21,2.8-1.61,4.29-.77,1.34-1.42,2.76-1.92,4.24-.88,1.32-1.62,2.74-2.23,4.23-.93,1.23-1.73,2.54-2.41,3.94-1.03,1.19-1.94,2.47-2.71,3.85-1.11,1.13-2.11,2.39-2.97,3.73-1.16,1.05-2.22,2.2-3.15,3.46-1.25.98-2.4,2.08-3.43,3.28-1.35.92-2.59,1.99-3.73,3.16-1.39.82-2.69,1.79-3.89,2.87-1.48.74-2.87,1.62-4.14,2.64-8.54,3.56-14.54,11.97-14.54,21.8,0,13.04,10.57,23.61,23.61,23.61,5.56,0,10.66-1.93,14.69-5.15,2.52-1.05,4.8-2.54,6.79-4.35,2.41-1.21,4.59-2.81,6.45-4.73,2.26-1.34,4.29-3.03,5.99-5.02,2.18-1.48,4.08-3.33,5.65-5.44,2.07-1.62,3.85-3.57,5.28-5.77,1.91-1.71,3.54-3.72,4.81-5.97,1.79-1.83,3.27-3.95,4.4-6.28,1.68-1.95,3.05-4.16,4.03-6.59,1.51-2,2.7-4.23,3.52-6.65,1.4-2.1,2.45-4.45,3.12-6.96,1.27-2.2,2.21-4.62,2.72-7.19,1.08-2.19,1.83-4.57,2.18-7.09.99-2.33,1.59-4.85,1.79-7.49.83-2.37,1.3-4.9,1.32-7.55.56-2.01.88-4.12.88-6.3,0-.39-.04-.77-.06-1.16.35-1.61.54-3.28.54-5,0-.95-.07-1.88-.18-2.79.16-1.11.27-2.24.27-3.4,0-1.45-.15-2.87-.4-4.25Z"/>
          <path class="st28" d="M885.88,383.89l-17.61,44.25c.46.11.92.23,1.4.31,1.25.56,2.55,1.01,3.9,1.35,1.31.71,2.69,1.3,4.14,1.75,1.36.85,2.81,1.57,4.34,2.13,1.57,1.06,3.27,1.92,5.08,2.59,1.56,1.06,3.27,1.92,5.07,2.59,1.56,1.06,3.27,1.92,5.07,2.59,1.56,1.06,3.42,1.67,5.22,2.34,1.66,1.13,3.5,1.98,5.42,2.65,1.71,1.19,3.53,2.15,5.53,2.86,1.71,1.19,3.51,2.12,5.51,2.83,1.71,1.19,3.69,2.2,5.69,2.91,1.71,1.19,3.67,2.15,5.67,2.86,1.88.56,2.77,1.19,4.13,1.79.3-.4-.02.07.63-.88.64-1.66,1.42-3.2,2.39-4.66.64-1.66,1.46-3.31,2.44-4.77.73-1.85,1.41-3.21,2.38-4.66.45-1.17,1.05-2.37,1.67-3.44.28-.91,1.14-3.19,1.53-4.05.35-1.75.39-2.02,1.1-3.61.35-1.75.91-3.48,1.62-5.06.35-1.75.91-3.46,1.62-5.05.35-1.75,1.61-4.99,1.98-6.53.12-.62.12-.66.12-.66-.17-.06-.32-.12-.5-.18-1.71-1.19-3.53-2.1-5.53-2.81-1.71-1.19-3.65-2.19-5.66-2.9-1.35-.5-1.42-.43-3.08-.89-2.06-1.89-6.32-4.4-8.21-4.88-1.62-1.13-3.34-1.99-5.22-2.69-1.56-1.06-3.33-1.96-5.13-2.63-1.56-1.06-3.37-1.94-5.18-2.61-1.56-1.06-3.11-1.86-4.91-2.53-1.57-1.06-3.35-1.98-5.16-2.64-1.87-1.27-3.78-2.2-5.99-2.9-2.06-1.29-4.36-2.26-6.78-2.87-1.51-.82-3.02-1.45-4.72-1.92Z"/>
          <path class="st30" d="M1059.5,504.83l16.75-44.14c-.3-.07-.59-.16-.89-.22-1.44-.62-2.95-1.1-4.53-1.42-1.44-.61-2.95-1.1-4.51-1.42l-4.32-1.37c-.06-.01-.13-.04-.19-.05-.07-.03-.13-.05-.2-.07l-3.93-1.24c-.13-.03-.26-.07-.39-.1-.13-.06-.27-.1-.41-.15l-3.53-1.12c-.2-.05-.38-.11-.58-.15-.2-.08-.41-.15-.61-.23l-3.12-.99c-.26-.06-.51-.15-.78-.2-.27-.11-.55-.2-.82-.3l-2.73-.86c-.33-.08-.64-.18-.97-.25-.33-.14-.68-.25-1.02-.38l-2.33-.74c-.39-.1-.77-.22-1.17-.3-.4-.17-.82-.3-1.22-.45l-1.92-.61c-.45-.12-.9-.26-1.36-.35-.46-.2-.95-.36-1.43-.53l-1.53-.48c-.52-.14-1.03-.3-1.56-.4-.47-.2-.95-.38-1.44-.54l-.58-.18c-.39-.12-.78-.24-1.17-.35,0,0,.02,0,.02-.01l-32.26-10.1c-.13.32-.3.79-.44,1.1-.69,1.74-1.1,2.73-1.73,4.34-.74,1.78-1.43,3.62-2.04,5.12-.71,1.78-1.29,3.22-1.9,4.76-.49,1.17-1.13,2.74-1.54,3.86-.76,2.01-1.22,2.92-2.06,5.18-.61,1.52-1.02,2.56-1.79,4.48-.64,1.66-1.21,3.03-1.98,4.98-.63,1.66-1.1,2.76-1.89,4.75-.63,1.66-1.16,2.9-1.97,4.91l-.18.43s.31.11.35.13c.78.25,1.58.45,2.4.62,1.48.64,3.04,1.14,4.67,1.47,1.39.59,2.85,1.06,4.37,1.38,1.45.62,2.97,1.11,4.55,1.43,1.41.61,2.9,1.07,4.44,1.39,1.46.63,2.99,1.12,4.58,1.45,1.44.62,2.95,1.1,4.51,1.42,1.44.62,2.95,1.1,4.51,1.42,1.44.62,2.95,1.1,4.51,1.42,1.44.62,2.95,1.1,4.51,1.42,1.44.62,2.95,1.1,4.51,1.42,1.44.61,2.95,1.1,4.51,1.42,1.44.62,2.95,1.1,4.51,1.42,1.44.62,2.95,1.1,4.51,1.42,1.44.62,2.95,1.1,4.51,1.42,1.44.62,2.95,1.1,4.51,1.42,1.44.62,2.95,1.1,4.51,1.42,1.44.61,2.95,1.1,4.51,1.42.88.38,1.79.68,2.71.95Z"/>
          <path class="st24" d="M1067.03,547.1c-1.31-.43-2.68-.74-4.09-.93-1.33-.54-2.72-.97-4.17-1.27-1.22-.58-2.49-1.07-3.82-1.44-1.19-.68-2.45-1.25-3.75-1.72-1.21-.81-2.5-1.51-3.86-2.09-1.09-.83-2.26-1.58-3.49-2.21-1.03-.91-2.14-1.73-3.32-2.45-1-1.02-2.1-1.95-3.27-2.77-.94-1.1-1.97-2.11-3.1-3.02-.84-1.13-1.78-2.19-2.81-3.15-.77-1.21-1.64-2.34-2.61-3.39-.71-1.33-1.54-2.59-2.49-3.76-.63-1.42-1.4-2.76-2.29-4.02-.68-1.83-1.57-3.56-2.66-5.14-.69-1.87-1.59-3.64-2.7-5.26-.69-1.87-1.59-3.64-2.7-5.26-.69-1.87-1.59-3.64-2.7-5.26-.62-1.7-1.13-2.81-2.11-4.3-.43-.18-3.54-1.15-3.96-1.35-2.11-.38-7.22-1.97-9.09-2.86-2.11-.38-2.56-.5-4.44-1.39-2.11-.38-2.68-.54-4.55-1.43-2.11-.38-2.49-.48-4.37-1.38-2.11-.38-2.79-.57-4.67-1.47-.71-.13-2.05-.56-2.73-.75-.03.05-.38.79-.41.83-.69,1.87-1.1,2.41-2.21,4.03-.69,1.87-1.59,3.64-2.7,5.26-.69,1.87-1.59,3.64-2.7,5.26-.69,1.87-1.59,3.64-2.7,5.26-.42,1.14-.95,2.23-1.52,3.29.37.67.74,1.34,1.18,1.98.69,1.87,1.59,3.64,2.7,5.26.69,1.87,1.59,3.64,2.7,5.26.69,1.87,1.59,3.64,2.7,5.26.69,1.87,1.59,3.64,2.7,5.26.69,1.87,1.59,3.64,2.7,5.26.72,1.96,1.68,3.81,2.87,5.49.9,2.4,2.15,4.63,3.74,6.59,1.06,2.37,2.49,4.53,4.23,6.41,1.23,2.31,2.83,4.38,4.73,6.15,1.38,2.19,3.1,4.13,5.11,5.76,1.5,2.01,3.3,3.78,5.35,5.23,1.62,1.89,3.54,3.52,5.67,4.82,1.76,1.8,3.82,3.31,6.08,4.47,1.87,1.65,4,3.02,6.33,4.02,1.91,1.45,4.03,2.61,6.33,3.43,2.05,1.37,4.33,2.41,6.77,3.09,2.15,1.23,4.49,2.14,6.99,2.64,2.14,1.02,4.45,1.73,6.89,2.07,2.24.91,4.66,1.47,7.18,1.65,2.32.76,4.79,1.19,7.36,1.19.02,0,.05,0,.07,0,.44.11.88.21,1.33.29l3.3-46.99c-.99-.2-1.99-.36-3.02-.43Z"/>
          <path class="st26" d="M1072.86,594.99c1.37.25,2.78.4,4.23.4,1.08,0,2.14-.1,3.19-.24.87.1,1.75.16,2.65.16,1.71,0,3.37-.19,4.97-.53.3.01.58.04.88.04,2.27,0,4.46-.34,6.54-.94,2.57-.08,5.04-.56,7.34-1.4,2.65-.25,5.16-.95,7.48-2,2.63-.44,5.11-1.3,7.36-2.53,2.53-.62,4.89-1.64,7.02-2.99,1.9-.59,3.67-1.44,5.33-2.46,1.22-.55,2.39-1.19,3.49-1.94,1.04-.53,2.04-1.13,2.98-1.8,1.15-.62,2.23-1.34,3.25-2.13,1.1-.65,2.16-1.37,3.14-2.19.97-.62,1.88-1.32,2.75-2.07,1.09-.74,2.09-1.57,3.04-2.48.98-.73,1.92-1.53,2.78-2.4.91-.73,1.76-1.53,2.56-2.39.99-.83,1.9-1.75,2.73-2.73.87-.8,1.69-1.65,2.43-2.57.85-.83,1.62-1.73,2.34-2.68.88-.92,1.69-1.9,2.42-2.95.76-.86,1.46-1.76,2.09-2.72.77-.92,1.45-1.9,2.08-2.93.77-.99,1.48-2.03,2.09-3.13.65-.91,1.25-1.86,1.77-2.86.68-.99,1.26-2.05,1.79-3.14.66-1.05,1.26-2.14,1.76-3.29.55-.96,1.05-1.95,1.46-2.99.58-1.05,1.05-2.16,1.47-3.3.55-1.1,1.04-2.24,1.42-3.43.46-1,.85-2.04,1.16-3.11.47-1.1.83-2.25,1.13-3.42.44-1.14.81-2.32,1.07-3.54.36-1.05.65-2.12.86-3.23.36-1.13.61-2.31.79-3.5.33-1.18.58-2.38.72-3.62.26-1.09.45-2.2.55-3.35.24-1.15.38-2.35.44-3.56.21-1.2.34-2.43.36-3.69.14-1.04.24-2.1.24-3.19,0-.09-.01-.17-.01-.26.09-.83.14-1.68.14-2.54,0-.36-.04-.7-.05-1.05.04-.58.09-1.16.09-1.75,0-.67-.05-1.33-.1-1.98,0-.28.04-.55.04-.83,0-.9-.06-1.79-.16-2.66,0-.05,0-.1,0-.15,0-.64-.04-1.28-.1-1.91-.36.26-.71.53-1.08.77-1.65,1.84-3.59,3.43-5.74,4.68-1.79,1.8-3.88,3.28-6.16,4.43-1.88,1.67-4.01,3.06-6.36,4.07-1.93,1.52-4.11,2.74-6.46,3.6-2.06,1.45-4.35,2.58-6.81,3.32-2.07,1.28-4.35,2.24-6.77,2.83-2.2,1.21-4.61,2.06-7.17,2.52-1.14.54-2.32.98-3.55,1.34-.09.26-.19.5-.26.76-.29.69-.55,1.39-.78,2.11-.26.56-.48,1.14-.7,1.72-.29.58-.57,1.17-.81,1.78-.36.66-.69,1.33-.99,2.02-.31.53-.59,1.08-.86,1.64-.35.56-.69,1.12-.99,1.71-.42.61-.81,1.25-1.17,1.9-.36.5-.69,1.01-1.01,1.54-.42.53-.81,1.07-1.18,1.64-.47.56-.91,1.15-1.33,1.75-.41.46-.79.93-1.16,1.42-.49.51-.95,1.03-1.39,1.58-.51.5-.99,1.02-1.46,1.57-.45.42-.89.85-1.3,1.3-.57.48-1.11.98-1.63,1.51-.54.43-1.06.89-1.56,1.37-.5.37-.98.75-1.44,1.16-.65.44-1.28.92-1.89,1.43-.57.36-1.11.76-1.64,1.17-.57.34-1.13.69-1.67,1.08-.72.38-1.41.8-2.08,1.26-.59.3-1.15.62-1.71.97-1.01.46-1.98.99-2.91,1.58-1.49.47-2.92,1.08-4.27,1.82-1.42.35-2.79.82-4.09,1.41-1.41.24-2.78.6-4.09,1.08-1.48.14-2.92.43-4.31.83-1.46.04-2.89.2-4.27.5-.3-.01-.58-.04-.88-.04-1.08,0-2.14.1-3.19.24-.87-.1-1.75-.16-2.65-.16-.53,0-1.05.04-1.58.08-1.37-.25-2.78-.4-4.23-.4-.02,0-.05,0-.07,0-.32-.08-.65-.13-.98-.2l-3.3,46.99c1.41.27,2.86.43,4.35.43.53,0,1.05-.04,1.58-.08Z"/>
          <path class="st29" d="M930.18,457.61c-1.68-.64-3.27-1.44-4.74-2.42-1.68-.64-3.27-1.44-4.74-2.42-1.68-.64-3.27-1.44-4.74-2.42-1.68-.64-3.27-1.44-4.74-2.42-1.21-.46-2.37-1.01-3.47-1.65-.88-.38-1.72-.82-2.54-1.29-.39-.17-.77-.35-1.15-.54-1.17.35-2.3.78-3.39,1.3-2.11.38-4.12,1.04-5.99,1.93-2.11.38-4.12,1.04-5.99,1.93-2.11.38-4.12,1.04-5.99,1.93-2.11.38-4.12,1.04-5.99,1.93-2.11.38-4.12,1.04-5.99,1.93-2.11.38-4.12,1.04-5.99,1.93-2.11.38-4.12,1.04-5.99,1.93-.34.06-.66.17-.99.24v48.57c.25-.09.51-.16.76-.25,2.75-.22,5.36-.92,7.76-2,2.4-.34,4.68-1.04,6.79-2.05,2.11-.38,4.12-1.04,5.99-1.93,2.11-.38,4.12-1.04,5.99-1.93,2.11-.38,4.12-1.04,5.99-1.93,2.11-.38,4.12-1.04,5.99-1.93,2.11-.38,4.12-1.04,5.99-1.93,2.11-.38,4.12-1.04,5.99-1.93,2.11-.38,4.12-1.04,5.99-1.93,1.64-.29,3.21-.76,4.71-1.37.1-.15.18-.32.28-.47.69-1.87,1.59-3.64,2.7-5.26.69-1.87,1.59-3.64,2.7-5.26.69-1.87,1.59-3.64,2.7-5.26.69-1.87,1.59-3.64,2.7-5.26.69-1.87,1.59-3.64,2.7-5.26.28-.77.6-1.52.96-2.25-1.5-.61-2.93-1.35-4.26-2.24Z"/>
          <path class="st31" d="M853.18,460.98c-1.71.24-3.36.67-4.93,1.26-1.76.14-3.47.46-5.09.97-1.68.05-3.3.27-4.87.65-.27,0-.53-.04-.81-.04-1.39,0-2.74.14-4.06.37-.75-.07-1.5-.11-2.27-.11-.94,0-1.85.07-2.76.17-1.15-.17-2.33-.29-3.53-.29-.41,0-.81.04-1.22.06-1.61-.35-3.28-.54-5-.55-1.5-.41-3.06-.67-4.66-.77-1.51-.52-3.09-.88-4.73-1.08-1.49-.6-3.06-1.05-4.68-1.34-1.42-.67-2.9-1.2-4.46-1.58-.71-.39-1.45-.74-2.2-1.06-.23.48-.46.95-.73,1.41-.32.76-.67,1.5-1.06,2.22-.24.61-.51,1.21-.79,1.79-.23.66-.48,1.31-.76,1.94-.23.75-.49,1.49-.79,2.21-.17.61-.37,1.21-.58,1.81-.16.68-.34,1.36-.56,2.02-.14.74-.33,1.46-.54,2.18-.11.63-.24,1.24-.39,1.85-.09.69-.2,1.38-.34,2.05-.07.73-.18,1.45-.31,2.16-.04.63-.11,1.26-.2,1.88-.02.69-.05,1.37-.13,2.04,0,.05,0,.1,0,.15,0,.67-.05,1.33-.1,1.98,0,.28.04.55.04.83,0,.36-.04.7-.05,1.06.04.58.09,1.16.09,1.75,0,.09-.01.17-.01.26.08.7.11,1.42.12,2.14.08.62.14,1.24.17,1.88.11.65.21,1.31.27,1.98.15.71.26,1.43.34,2.16.14.61.26,1.22.35,1.84.18.63.33,1.27.46,1.92.22.7.41,1.42.56,2.15.2.59.37,1.18.53,1.79.14.36.25.72.37,1.09,1.17.34,2.38.59,3.63.74,2.29.93,4.76,1.49,7.34,1.66,2.38.81,4.93,1.27,7.59,1.27,1.97.53,4.04.85,6.18.85.41,0,.81-.04,1.22-.06,1.62.35,3.29.55,5.02.55.94,0,1.85-.07,2.76-.17,1.15.17,2.33.29,3.53.29,1.39,0,2.74-.14,4.06-.37.75.07,1.5.11,2.27.11,1.91,0,3.76-.25,5.54-.68.27,0,.53.04.81.04,2.45,0,4.81-.37,7.03-1.06,2.4-.07,4.69-.51,6.86-1.24v-48.57c-1.57.35-3.1.82-4.54,1.47Z"/>
          <path class="st35" d="M962.19,366.25c-.37-1.98-.98-3.86-1.81-5.63-.37-1.98-.98-3.86-1.81-5.63-.37-1.98-.98-3.86-1.81-5.63-.37-1.98-.98-3.86-1.81-5.63-.39-2.09-1.06-4.08-1.96-5.94-.49-2.24-1.3-4.36-2.38-6.31-.59-2.11-1.47-4.09-2.59-5.92-.7-2.13-1.69-4.12-2.94-5.93-.79-2.01-1.85-3.87-3.13-5.57-.9-2-2.06-3.86-3.45-5.51-.98-1.89-2.21-3.63-3.64-5.18-1.08-1.87-2.39-3.58-3.92-5.07-1.15-1.77-2.54-3.37-4.11-4.77-.39-.55-.85-1.05-1.28-1.56l-33.28,33.28c.72.97,1.5,1.89,2.36,2.74.73,1.13,1.56,2.18,2.47,3.16.69,1.2,1.48,2.34,2.37,3.4.62,1.2,1.35,2.34,2.16,3.41.58,1.29,1.27,2.53,2.06,3.69.5,1.28,1.12,2.49,1.83,3.65.46,1.39,1.04,2.72,1.73,3.98.38,1.35.88,2.65,1.48,3.89.37,1.7.94,3.32,1.66,4.86.37,1.98.98,3.86,1.81,5.63.37,1.98.98,3.86,1.81,5.63.37,1.98.98,3.86,1.81,5.63.37,1.98.98,3.86,1.81,5.63.37,1.98.98,3.86,1.81,5.63.37,1.98.98,3.86,1.81,5.63.37,1.98.98,3.86,1.81,5.63.31,1.69.82,3.32,1.48,4.86.54.27,1.07.55,1.59.85.88.38,1.72.82,2.54,1.29,1.34.57,2.61,1.27,3.8,2.06,1.68.64,3.27,1.44,4.74,2.42,1.68.64,3.27,1.44,4.74,2.42,1.68.64,3.27,1.44,4.74,2.42,1.68.64,3.27,1.44,4.74,2.42.22.08.46.16.68.25.37-1.8.97-3.5,1.73-5.12.37-1.98.98-3.86,1.81-5.63.37-1.98.98-3.86,1.81-5.63.37-1.98.98-3.86,1.81-5.63.37-1.98.98-3.86,1.81-5.63.37-1.98.98-3.86,1.81-5.63.37-1.98.98-3.86,1.81-5.63.14-.78.34-1.54.56-2.29-.34-1.15-.75-2.27-1.25-3.34-.37-1.98-.98-3.86-1.81-5.63Z"/>
          <path class="st33" d="M726.24,301.25c-1.46,1.53-2.73,3.24-3.74,5.12-1.33,1.55-2.46,3.27-3.35,5.13-1.31,1.66-2.41,3.48-3.24,5.45-1.17,1.65-2.12,3.47-2.84,5.4-1.14,1.77-2.07,3.69-2.71,5.74-1,1.75-1.78,3.64-2.31,5.63-.97,1.86-1.7,3.86-2.15,5.97-.83,1.84-1.43,3.79-1.78,5.84-.79,1.94-1.32,4.01-1.57,6.17-.66,1.91-1.08,3.93-1.22,6.03-.6,2.01-.93,4.13-.97,6.33-.43,1.78-.68,3.63-.68,5.54,0,.22.03.43.03.65-.28,1.47-.44,2.98-.44,4.52,0,.84.05,1.66.13,2.48-.17,1.15-.29,2.32-.29,3.52,0,1.14.11,2.25.26,3.34-.07.72-.11,1.45-.11,2.19,0,1.79.22,3.52.59,5.19-.02.39-.06.77-.06,1.16,0,2.26.34,4.43.93,6.5.02,2.74.52,5.35,1.39,7.79.18,2.74.81,5.36,1.85,7.77.34,2.69,1.14,5.24,2.31,7.57.5,2.7,1.46,5.23,2.79,7.52.65,2.6,1.72,5.03,3.15,7.2.81,2.54,2.04,4.87,3.6,6.96.96,2.47,2.3,4.74,3.99,6.73,1.08,2.33,2.52,4.46,4.27,6.3,1.23,2.3,2.83,4.36,4.71,6.12,1.35,2.19,3.04,4.16,5.01,5.8,1.45,2.06,3.22,3.86,5.24,5.36,1.31,1.66,2.85,3.12,4.55,4.38.05-.52.11-1.03.18-1.54.03-1.28.16-2.53.39-3.75.08-1.18.23-2.35.47-3.47.11-1.22.34-2.41.63-3.57.16-1.29.42-2.54.78-3.76.2-1.17.47-2.31.83-3.41.24-1.22.59-2.4,1.01-3.55.3-1.29.68-2.54,1.18-3.73.31-1.13.7-2.23,1.17-3.29.37-1.22.86-2.4,1.41-3.53.43-1.26.95-2.48,1.58-3.64.43-1.1.94-2.15,1.52-3.16.51-1.22,1.13-2.38,1.83-3.48.55-1.18,1.18-2.32,1.91-3.38.53-1.04,1.14-2.03,1.82-2.97.15-.28.33-.54.49-.81-.48-.72-1-1.4-1.56-2.06-.69-1.5-1.54-2.91-2.52-4.22-.61-1.58-1.37-3.07-2.29-4.46-.52-1.65-1.24-3.21-2.09-4.68-.42-1.68-1.02-3.29-1.78-4.8-.32-1.75-.83-3.44-1.52-5.03-.22-1.71-.62-3.36-1.18-4.93-.11-1.7-.4-3.34-.85-4.92-.01-1.74-.22-3.42-.58-5.05.02-.39.06-.77.06-1.16,0-1.14-.11-2.25-.26-3.34.07-.72.11-1.45.11-2.19,0-.84-.05-1.66-.13-2.48.17-1.15.29-2.32.29-3.52,0-.22-.03-.43-.03-.65.26-1.33.4-2.71.42-4.11.3-1.26.5-2.55.6-3.88.39-1.31.67-2.66.83-4.06.42-1.22.74-2.48.96-3.78.51-1.27.93-2.59,1.22-3.96.53-1.17.97-2.4,1.3-3.66.63-1.22,1.18-2.49,1.59-3.82.64-1.12,1.18-2.29,1.63-3.51.74-1.15,1.4-2.36,1.94-3.64.75-1.05,1.4-2.18,1.97-3.35.55-.7,1.05-1.44,1.53-2.19l-33.67-33.67c-.17.26-.37.5-.53.76Z"/>
          <path class="st34" d="M1167.88,425.45c-.64-1.07-1.35-2.08-2.15-3.03-.65-.99-1.37-1.93-2.16-2.81-.75-1.08-1.58-2.09-2.49-3.02-.72-.95-1.5-1.85-2.35-2.68-.76-.94-1.59-1.8-2.48-2.62-.84-.98-1.75-1.89-2.74-2.72-.78-.84-1.62-1.62-2.52-2.34-.86-.87-1.79-1.65-2.77-2.38-.92-.87-1.9-1.68-2.95-2.4-.84-.73-1.72-1.4-2.66-2.01-.94-.79-1.96-1.48-3.03-2.11-.99-.76-2.03-1.47-3.13-2.07-.89-.63-1.82-1.2-2.8-1.7-.45-.3-.91-.58-1.38-.85l-33.05,36.56c.52.2,1.03.4,1.56.57.57.25,1.15.48,1.74.69.56.27,1.12.53,1.7.76.68.37,1.38.7,2.09,1.01.54.31,1.1.59,1.67.85.53.33,1.07.65,1.63.94.64.43,1.3.84,1.98,1.21.5.36,1.02.69,1.55,1,.51.39,1.03.77,1.57,1.12.59.49,1.2.95,1.83,1.38.46.4.94.78,1.43,1.15.49.46.98.9,1.51,1.32.52.53,1.07,1.04,1.65,1.52.42.45.86.88,1.31,1.29.46.54.94,1.05,1.45,1.54.46.57.94,1.11,1.45,1.63.37.49.76.97,1.18,1.43.43.62.89,1.22,1.37,1.79.39.59.8,1.16,1.24,1.72.32.54.67,1.06,1.03,1.57.39.71.82,1.4,1.27,2.07.32.62.66,1.21,1.03,1.79.06.14.14.27.21.41.77-.32,1.57-.61,2.38-.85,1.33-.82,2.75-1.52,4.25-2.06,1.33-.94,2.76-1.76,4.28-2.41,1.25-.98,2.59-1.83,4.02-2.55,1.18-1.05,2.46-1.98,3.84-2.78,1.16-1.17,2.46-2.2,3.85-3.11,1.06-1.18,2.24-2.25,3.51-3.2,1.02-1.29,2.17-2.49,3.44-3.54.93-1.32,1.99-2.53,3.17-3.63.85-1.38,1.83-2.66,2.94-3.83.39-.72.81-1.42,1.27-2.09-.53-.87-1.09-1.72-1.72-2.51Z"/>
          <path class="st32" d="M1034.57,388.28c-.63.27-1.24.57-1.83.89-1.07.42-2.09.92-3.08,1.49-.93.39-1.82.86-2.68,1.36-.88.38-1.72.82-2.54,1.29-.88.38-1.72.82-2.54,1.29-.88.38-1.72.82-2.54,1.29-.88.38-1.72.82-2.54,1.29-.88.38-1.72.82-2.54,1.29-.88.38-1.72.82-2.54,1.29-.88.38-1.72.82-2.54,1.29-.88.38-1.72.82-2.54,1.29-.32.14-.63.29-.94.45-.11.26-.21.52-.33.77-.37,1.98-.98,3.86-1.81,5.63-.37,1.98-.98,3.86-1.81,5.63-.37,1.98-.98,3.86-1.81,5.63-.37,1.98-.98,3.86-1.81,5.63-.37,1.98-.98,3.86-1.81,5.63-.23,1.22-.55,2.4-.96,3.55,1.55.39,3.03.92,4.44,1.6,2.11.38,4.12,1.04,5.99,1.93,2.11.38,4.12,1.04,5.99,1.93,2.11.38,4.12,1.04,5.99,1.93,2.11.38,4.12,1.04,5.99,1.93.89.16,1.75.38,2.6.63.47-.24.93-.49,1.39-.75.88-.38,1.72-.82,2.54-1.29.88-.38,1.72-.82,2.54-1.29.88-.38,1.72-.82,2.54-1.29.88-.38,1.72-.82,2.53-1.29.88-.38,1.72-.82,2.54-1.29.88-.38,1.72-.82,2.54-1.29.88-.38,1.72-.82,2.54-1.29.88-.38,1.72-.82,2.54-1.29.85-.37,1.67-.8,2.47-1.26.77-.32,1.52-.69,2.24-1.09.64-.26,1.27-.54,1.89-.85.63-.22,1.24-.46,1.84-.73.07-.02.13-.05.2-.07l-22.17-41.85Z"/>
          <path class="st27" d="M850.3,337.72c-.22-1.54-.58-3.02-1.07-4.45-.12-1.57-.38-3.09-.79-4.56-.01-1.64-.2-3.24-.53-4.78.02-.39.06-.76.06-1.15,0-1.16-.11-2.28-.27-3.4.11-.92.18-1.85.18-2.79,0-.66-.05-1.31-.1-1.96.25-1.38.4-2.8.4-4.25,0-.16-.02-.32-.02-.48.37-1.49.6-3.03.67-4.61.5-1.54.86-3.15,1.04-4.81.1-.24.16-.49.25-.74-.47-.12-.95-.21-1.41-.36-.78-.14-1.54-.31-2.29-.52-.75-.1-1.49-.24-2.22-.42-.91-.09-1.79-.24-2.66-.43-.85-.07-1.69-.18-2.51-.33-.75-.04-1.49-.11-2.23-.22-.84-.01-1.66-.07-2.48-.17-.04,0-.09,0-.13,0-.08,0-.16.01-.25.01-.81,0-1.61-.04-2.4-.12-.27,0-.53.04-.8.04-.49,0-.97-.04-1.45-.07-.58.04-1.17.09-1.76.09-.22,0-.43-.03-.65-.03-.85.09-1.7.15-2.57.15-.06,0-.11,0-.17,0-.8.1-1.61.17-2.43.19-.75.12-1.52.21-2.3.26-.9.19-1.82.31-2.75.39-.85.2-1.72.35-2.61.45-.74.19-1.48.34-2.24.46-.87.27-1.77.47-2.68.63-.89.3-1.79.56-2.73.75-.73.26-1.48.49-2.25.68-.77.32-1.57.57-2.38.81-.07.73-.11,1.46-.11,2.2,0,.16.02.32.02.48-.46,1.84-.73,3.75-.73,5.73,0,.66.05,1.31.1,1.96-.25,1.38-.4,2.8-.4,4.25,0,1.16.11,2.28.27,3.4-.11.92-.18,1.85-.18,2.79,0,1.72.19,3.38.54,5-.02.39-.06.77-.06,1.16,0,2.19.32,4.29.88,6.3.02,2.65.5,5.18,1.32,7.55.09,1.24.28,2.45.55,3.63,13.56-1.44,32.69-3.56,47.45-5.21-.3-1.19-.66-2.36-1.13-3.48Z"/>
          <path class="st36" d="M883.83,382.13c-1.28-1.02-2.67-1.9-4.14-2.64-1.19-1.08-2.49-2.05-3.89-2.87-1.13-1.17-2.37-2.24-3.73-3.16-1.03-1.21-2.18-2.3-3.43-3.28-.94-1.26-1.99-2.41-3.15-3.46-.87-1.34-1.86-2.59-2.97-3.73-.78-1.38-1.69-2.66-2.71-3.85-.67-1.4-1.48-2.71-2.41-3.94-.6-1.49-1.34-2.91-2.23-4.23-.5-1.49-1.15-2.9-1.92-4.24-.08-.32-.2-.62-.3-.93l-47.54,6.07c.41,1.95,1.04,3.81,1.9,5.55.51,2.57,1.44,4.99,2.72,7.19.67,2.51,1.72,4.85,3.12,6.96.82,2.42,2.01,4.65,3.52,6.65.76,1.89,1.77,3.64,2.97,5.25,1.47-.53,2.99-.93,4.57-1.16,2.19-.89,4.54-1.44,6.98-1.63,2.24-.73,4.61-1.13,7.05-1.16,2.21-.56,4.53-.8,6.91-.68,2.22-.42,4.54-.54,6.9-.29.11.01.22.04.33.05,1.71-.2,3.47-.24,5.26-.05.65.07,1.28.18,1.91.3,1.21-.06,2.44-.06,3.69.07,1.15.12,2.25.35,3.34.62.74,0,1.49.04,2.24.12,1.74.18,3.4.56,5,1.09.18.02.37.01.55.03,2.31.24,4.5.83,6.54,1.67,2.43.37,4.71,1.09,6.82,2.12.3.06.59.15.88.23-1.47-1.07-3.07-1.98-4.77-2.69Z"/>
        </g>
      </g>
    </g>
  </g>
</svg>